<svg width="204" height="197" viewBox="0 0 204 197" fill="none" xmlns="http://www.w3.org/2000/svg">
<path d="M242 185.082H0V185.203H242V185.082Z" fill="#EBEBEB"/>
<path d="M217.752 192.869H201.722V192.99H217.752V192.869Z" fill="#EBEBEB"/>
<path d="M160.31 194.186H156.104V194.307H160.31V194.186Z" fill="#EBEBEB"/>
<path d="M201.238 188.378H191.95V188.499H201.238V188.378Z" fill="#EBEBEB"/>
<path d="M46.2946 189.191H25.3906V189.312H46.2946V189.191Z" fill="#EBEBEB"/>
<path d="M53.6707 189.191H50.6069V189.312H53.6707V189.191Z" fill="#EBEBEB"/>
<path d="M108.972 191.233H63.6313V191.354H108.972V191.233Z" fill="#EBEBEB"/>
<path d="M114.708 163.495H21.2525C20.5203 163.494 19.8186 163.202 19.3014 162.684C18.7842 162.166 18.4937 161.464 18.4937 160.732V29.3594C18.5 28.6315 18.7933 27.9355 19.3099 27.4226C19.8264 26.9096 20.5245 26.6212 21.2525 26.62H114.708C115.441 26.62 116.144 26.9112 116.662 27.4294C117.18 27.9477 117.472 28.6507 117.472 29.3836V160.732C117.472 161.465 117.18 162.167 116.662 162.686C116.144 163.204 115.441 163.495 114.708 163.495V163.495ZM21.2525 26.7168C20.5524 26.7181 19.8815 26.9971 19.387 27.4925C18.8924 27.988 18.6147 28.6594 18.6147 29.3594V160.732C18.6147 161.432 18.8924 162.103 19.387 162.598C19.8815 163.094 20.5524 163.373 21.2525 163.374H114.708C115.408 163.373 116.08 163.094 116.575 162.599C117.071 162.103 117.349 161.432 117.351 160.732V29.3594C117.349 28.659 117.071 27.9875 116.575 27.4922C116.08 26.9969 115.408 26.7181 114.708 26.7168H21.2525Z" fill="#EBEBEB"/>
<path d="M219.402 163.495H125.942C125.209 163.494 124.507 163.202 123.989 162.684C123.471 162.166 123.18 161.464 123.178 160.732V29.3594C123.186 28.6311 123.48 27.9351 123.998 27.4223C124.515 26.9095 125.213 26.6212 125.942 26.62H219.402C220.129 26.6225 220.826 26.9115 221.342 27.4243C221.857 27.9371 222.15 28.6323 222.156 29.3594V160.732C222.156 161.463 221.866 162.164 221.35 162.682C220.834 163.2 220.134 163.493 219.402 163.495V163.495ZM125.942 26.7168C125.241 26.7181 124.57 26.9969 124.075 27.4922C123.579 27.9875 123.301 28.659 123.299 29.3594V160.732C123.301 161.432 123.579 162.103 124.075 162.599C124.57 163.094 125.241 163.373 125.942 163.374H219.402C220.103 163.373 220.774 163.094 221.269 162.599C221.765 162.103 222.044 161.432 222.045 160.732V29.3594C222.044 28.659 221.765 27.9875 221.269 27.4922C220.774 26.9969 220.103 26.7181 219.402 26.7168H125.942Z" fill="#EBEBEB"/>
<path d="M215.583 56.7151H98.3198V169.748H215.583V56.7151Z" fill="#E0E0E0"/>
<path d="M215.583 58.7673H100.203V167.774H215.583V58.7673Z" fill="#F5F5F5"/>
<path d="M101.054 141.376V108.585H104.457V104.254L112.124 100.672V96.2386H113.401V108.585H114.679V141.376H116.383V124.34H120.216V115.4H121.494V141.376H124.47V131.58H126.6V129.025H131.285V120.085H133.841V114.122H136.822V105.178H138.1V114.122H141.081V120.085H143.632V129.025H148.317V131.58H150.447V141.376H153.002V129.025H157.687V101.776H158.965V98.7941H169.182V101.776H171.312V121.363H179.83V123.488H182.807V124.766H179.83V132.432H188.77V106.882H190.473V101.776H194.733V82.188H196.01V101.776H198.992V106.882H215.583V167.774H100.203V141.376H101.054Z" fill="#E6E6E6"/>
<path d="M204.8 116.31H203.595V117.515H204.8V116.31Z" fill="#F0F0F0"/>
<path d="M204.8 118.333H203.595V119.538H204.8V118.333Z" fill="#F0F0F0"/>
<path d="M204.8 120.351H203.595V121.557H204.8V120.351Z" fill="#F0F0F0"/>
<path d="M204.8 122.375H203.595V123.58H204.8V122.375Z" fill="#F0F0F0"/>
<path d="M204.8 124.398H203.595V125.603H204.8V124.398Z" fill="#F0F0F0"/>
<path d="M204.8 128.444H203.595V129.649H204.8V128.444Z" fill="#F0F0F0"/>
<path d="M204.8 130.467H203.595V131.672H204.8V130.467Z" fill="#F0F0F0"/>
<path d="M202.883 108.218H201.678V109.423H202.883V108.218Z" fill="#F0F0F0"/>
<path d="M202.883 110.241H201.678V111.446H202.883V110.241Z" fill="#F0F0F0"/>
<path d="M202.883 112.264H201.678V113.469H202.883V112.264Z" fill="#F0F0F0"/>
<path d="M202.883 114.287H201.678V115.492H202.883V114.287Z" fill="#F0F0F0"/>
<path d="M202.883 116.31H201.678V117.515H202.883V116.31Z" fill="#F0F0F0"/>
<path d="M202.883 118.333H201.678V119.538H202.883V118.333Z" fill="#F0F0F0"/>
<path d="M202.883 120.351H201.678V121.557H202.883V120.351Z" fill="#F0F0F0"/>
<path d="M202.883 122.375H201.678V123.58H202.883V122.375Z" fill="#F0F0F0"/>
<path d="M202.883 124.398H201.678V125.603H202.883V124.398Z" fill="#F0F0F0"/>
<path d="M202.883 126.421H201.678V127.626H202.883V126.421Z" fill="#F0F0F0"/>
<path d="M202.883 130.467H201.678V131.672H202.883V130.467Z" fill="#F0F0F0"/>
<path d="M200.966 108.218H199.761V109.423H200.966V108.218Z" fill="#F0F0F0"/>
<path d="M200.966 110.241H199.761V111.446H200.966V110.241Z" fill="#F0F0F0"/>
<path d="M200.966 112.264H199.761V113.469H200.966V112.264Z" fill="#F0F0F0"/>
<path d="M200.966 114.287H199.761V115.492H200.966V114.287Z" fill="#F0F0F0"/>
<path d="M200.966 116.31H199.761V117.515H200.966V116.31Z" fill="#F0F0F0"/>
<path d="M200.966 118.333H199.761V119.538H200.966V118.333Z" fill="#F0F0F0"/>
<path d="M200.966 120.351H199.761V121.557H200.966V120.351Z" fill="#F0F0F0"/>
<path d="M200.966 138.56H199.761V139.765H200.966V138.56Z" fill="#F0F0F0"/>
<path d="M199.05 108.218H197.845V109.423H199.05V108.218Z" fill="#F0F0F0"/>
<path d="M199.05 110.241H197.845V111.446H199.05V110.241Z" fill="#F0F0F0"/>
<path d="M199.05 112.264H197.845V113.469H199.05V112.264Z" fill="#F0F0F0"/>
<path d="M199.05 114.287H197.845V115.492H199.05V114.287Z" fill="#F0F0F0"/>
<path d="M199.05 116.31H197.845V117.515H199.05V116.31Z" fill="#F0F0F0"/>
<path d="M199.05 118.333H197.845V119.538H199.05V118.333Z" fill="#F0F0F0"/>
<path d="M199.05 120.351H197.845V121.557H199.05V120.351Z" fill="#F0F0F0"/>
<path d="M199.05 122.375H197.845V123.58H199.05V122.375Z" fill="#F0F0F0"/>
<path d="M199.05 134.513H197.845V135.718H199.05V134.513Z" fill="#F0F0F0"/>
<path d="M199.05 136.536H197.845V137.742H199.05V136.536Z" fill="#F0F0F0"/>
<path d="M199.05 138.56H197.845V139.765H199.05V138.56Z" fill="#F0F0F0"/>
<path d="M199.05 140.578H197.845V141.783H199.05V140.578Z" fill="#F0F0F0"/>
<path d="M199.05 148.67H197.845V149.875H199.05V148.67Z" fill="#F0F0F0"/>
<path d="M197.133 108.218H195.928V109.423H197.133V108.218Z" fill="#F0F0F0"/>
<path d="M197.133 110.241H195.928V111.446H197.133V110.241Z" fill="#F0F0F0"/>
<path d="M197.133 112.264H195.928V113.469H197.133V112.264Z" fill="#F0F0F0"/>
<path d="M197.133 114.287H195.928V115.492H197.133V114.287Z" fill="#F0F0F0"/>
<path d="M197.133 116.31H195.928V117.515H197.133V116.31Z" fill="#F0F0F0"/>
<path d="M197.133 118.333H195.928V119.538H197.133V118.333Z" fill="#F0F0F0"/>
<path d="M197.133 120.351H195.928V121.557H197.133V120.351Z" fill="#F0F0F0"/>
<path d="M197.133 122.375H195.928V123.58H197.133V122.375Z" fill="#F0F0F0"/>
<path d="M197.133 124.398H195.928V125.603H197.133V124.398Z" fill="#F0F0F0"/>
<path d="M197.133 126.421H195.928V127.626H197.133V126.421Z" fill="#F0F0F0"/>
<path d="M197.133 132.49H195.928V133.695H197.133V132.49Z" fill="#F0F0F0"/>
<path d="M197.133 134.513H195.928V135.718H197.133V134.513Z" fill="#F0F0F0"/>
<path d="M197.133 136.536H195.928V137.742H197.133V136.536Z" fill="#F0F0F0"/>
<path d="M197.133 138.56H195.928V139.765H197.133V138.56Z" fill="#F0F0F0"/>
<path d="M197.133 140.578H195.928V141.783H197.133V140.578Z" fill="#F0F0F0"/>
<path d="M197.133 148.67H195.928V149.875H197.133V148.67Z" fill="#F0F0F0"/>
<path d="M195.216 108.218H194.011V109.423H195.216V108.218Z" fill="#F0F0F0"/>
<path d="M195.216 110.241H194.011V111.446H195.216V110.241Z" fill="#F0F0F0"/>
<path d="M195.216 112.264H194.011V113.469H195.216V112.264Z" fill="#F0F0F0"/>
<path d="M195.216 114.287H194.011V115.492H195.216V114.287Z" fill="#F0F0F0"/>
<path d="M195.216 116.31H194.011V117.515H195.216V116.31Z" fill="#F0F0F0"/>
<path d="M195.216 118.333H194.011V119.538H195.216V118.333Z" fill="#F0F0F0"/>
<path d="M195.216 120.351H194.011V121.557H195.216V120.351Z" fill="#F0F0F0"/>
<path d="M195.216 122.375H194.011V123.58H195.216V122.375Z" fill="#F0F0F0"/>
<path d="M195.216 124.398H194.011V125.603H195.216V124.398Z" fill="#F0F0F0"/>
<path d="M195.216 126.421H194.011V127.626H195.216V126.421Z" fill="#F0F0F0"/>
<path d="M195.216 128.444H194.011V129.649H195.216V128.444Z" fill="#F0F0F0"/>
<path d="M195.216 130.467H194.011V131.672H195.216V130.467Z" fill="#F0F0F0"/>
<path d="M195.216 132.49H194.011V133.695H195.216V132.49Z" fill="#F0F0F0"/>
<path d="M195.216 134.513H194.011V135.718H195.216V134.513Z" fill="#F0F0F0"/>
<path d="M195.216 136.536H194.011V137.742H195.216V136.536Z" fill="#F0F0F0"/>
<path d="M195.216 138.56H194.011V139.765H195.216V138.56Z" fill="#F0F0F0"/>
<path d="M195.216 140.578H194.011V141.783H195.216V140.578Z" fill="#F0F0F0"/>
<path d="M195.216 142.601H194.011V143.806H195.216V142.601Z" fill="#F0F0F0"/>
<path d="M193.3 108.218H192.095V109.423H193.3V108.218Z" fill="#F0F0F0"/>
<path d="M193.3 110.241H192.095V111.446H193.3V110.241Z" fill="#F0F0F0"/>
<path d="M193.3 112.264H192.095V113.469H193.3V112.264Z" fill="#F0F0F0"/>
<path d="M193.3 114.287H192.095V115.492H193.3V114.287Z" fill="#F0F0F0"/>
<path d="M193.3 116.31H192.095V117.515H193.3V116.31Z" fill="#F0F0F0"/>
<path d="M193.3 118.333H192.095V119.538H193.3V118.333Z" fill="#F0F0F0"/>
<path d="M193.3 120.351H192.095V121.557H193.3V120.351Z" fill="#F0F0F0"/>
<path d="M193.3 122.375H192.095V123.58H193.3V122.375Z" fill="#F0F0F0"/>
<path d="M193.3 124.398H192.095V125.603H193.3V124.398Z" fill="#F0F0F0"/>
<path d="M193.3 126.421H192.095V127.626H193.3V126.421Z" fill="#F0F0F0"/>
<path d="M193.3 132.49H192.095V133.695H193.3V132.49Z" fill="#F0F0F0"/>
<path d="M193.3 134.513H192.095V135.718H193.3V134.513Z" fill="#F0F0F0"/>
<path d="M193.3 136.536H192.095V137.742H193.3V136.536Z" fill="#F0F0F0"/>
<path d="M193.3 138.56H192.095V139.765H193.3V138.56Z" fill="#F0F0F0"/>
<path d="M191.388 108.218H190.183V109.423H191.388V108.218Z" fill="#F0F0F0"/>
<path d="M191.388 110.241H190.183V111.446H191.388V110.241Z" fill="#F0F0F0"/>
<path d="M191.388 112.264H190.183V113.469H191.388V112.264Z" fill="#F0F0F0"/>
<path d="M191.388 114.287H190.183V115.492H191.388V114.287Z" fill="#F0F0F0"/>
<path d="M191.388 116.31H190.183V117.515H191.388V116.31Z" fill="#F0F0F0"/>
<path d="M191.388 118.333H190.183V119.538H191.388V118.333Z" fill="#F0F0F0"/>
<path d="M191.388 120.351H190.183V121.557H191.388V120.351Z" fill="#F0F0F0"/>
<path d="M191.388 122.375H190.183V123.58H191.388V122.375Z" fill="#F0F0F0"/>
<path d="M191.388 124.398H190.183V125.603H191.388V124.398Z" fill="#F0F0F0"/>
<path d="M191.388 126.421H190.183V127.626H191.388V126.421Z" fill="#F0F0F0"/>
<path d="M191.388 132.49H190.183V133.695H191.388V132.49Z" fill="#F0F0F0"/>
<path d="M191.388 134.513H190.183V135.718H191.388V134.513Z" fill="#F0F0F0"/>
<path d="M191.388 136.536H190.183V137.742H191.388V136.536Z" fill="#F0F0F0"/>
<path d="M169.812 102.966H168.606V104.171H169.812V102.966Z" fill="#F0F0F0"/>
<path d="M169.812 104.989H168.606V106.194H169.812V104.989Z" fill="#F0F0F0"/>
<path d="M169.812 107.012H168.606V108.218H169.812V107.012Z" fill="#F0F0F0"/>
<path d="M169.812 109.036H168.606V110.241H169.812V109.036Z" fill="#F0F0F0"/>
<path d="M169.812 111.059H168.606V112.264H169.812V111.059Z" fill="#F0F0F0"/>
<path d="M169.812 113.082H168.606V114.287H169.812V113.082Z" fill="#F0F0F0"/>
<path d="M169.812 115.1H168.606V116.305H169.812V115.1Z" fill="#F0F0F0"/>
<path d="M169.812 117.123H168.606V118.328H169.812V117.123Z" fill="#F0F0F0"/>
<path d="M169.812 123.193H168.606V124.398H169.812V123.193Z" fill="#F0F0F0"/>
<path d="M169.812 125.216H168.606V126.421H169.812V125.216Z" fill="#F0F0F0"/>
<path d="M167.895 102.966H166.689V104.171H167.895V102.966Z" fill="#F0F0F0"/>
<path d="M167.895 104.989H166.689V106.194H167.895V104.989Z" fill="#F0F0F0"/>
<path d="M167.895 107.012H166.689V108.218H167.895V107.012Z" fill="#F0F0F0"/>
<path d="M167.895 109.036H166.689V110.241H167.895V109.036Z" fill="#F0F0F0"/>
<path d="M167.895 111.059H166.689V112.264H167.895V111.059Z" fill="#F0F0F0"/>
<path d="M167.895 113.082H166.689V114.287H167.895V113.082Z" fill="#F0F0F0"/>
<path d="M167.895 115.1H166.689V116.305H167.895V115.1Z" fill="#F0F0F0"/>
<path d="M167.895 117.123H166.689V118.328H167.895V117.123Z" fill="#F0F0F0"/>
<path d="M167.895 125.216H166.689V126.421H167.895V125.216Z" fill="#F0F0F0"/>
<path d="M165.978 102.966H164.773V104.171H165.978V102.966Z" fill="#F0F0F0"/>
<path d="M165.978 104.989H164.773V106.194H165.978V104.989Z" fill="#F0F0F0"/>
<path d="M165.978 107.012H164.773V108.218H165.978V107.012Z" fill="#F0F0F0"/>
<path d="M165.978 109.036H164.773V110.241H165.978V109.036Z" fill="#F0F0F0"/>
<path d="M165.978 111.059H164.773V112.264H165.978V111.059Z" fill="#F0F0F0"/>
<path d="M165.978 113.082H164.773V114.287H165.978V113.082Z" fill="#F0F0F0"/>
<path d="M165.978 115.1H164.773V116.305H165.978V115.1Z" fill="#F0F0F0"/>
<path d="M165.978 117.123H164.773V118.328H165.978V117.123Z" fill="#F0F0F0"/>
<path d="M164.062 102.966H162.856V104.171H164.062V102.966Z" fill="#F0F0F0"/>
<path d="M164.062 104.989H162.856V106.194H164.062V104.989Z" fill="#F0F0F0"/>
<path d="M164.062 107.012H162.856V108.218H164.062V107.012Z" fill="#F0F0F0"/>
<path d="M164.062 109.036H162.856V110.241H164.062V109.036Z" fill="#F0F0F0"/>
<path d="M164.062 111.059H162.856V112.264H164.062V111.059Z" fill="#F0F0F0"/>
<path d="M164.062 113.082H162.856V114.287H164.062V113.082Z" fill="#F0F0F0"/>
<path d="M164.062 117.123H162.856V118.328H164.062V117.123Z" fill="#F0F0F0"/>
<path d="M164.062 119.146H162.856V120.351H164.062V119.146Z" fill="#F0F0F0"/>
<path d="M164.062 125.216H162.856V126.421H164.062V125.216Z" fill="#F0F0F0"/>
<path d="M164.062 127.239H162.856V128.444H164.062V127.239Z" fill="#F0F0F0"/>
<path d="M164.062 129.262H162.856V130.467H164.062V129.262Z" fill="#F0F0F0"/>
<path d="M164.062 131.285H162.856V132.49H164.062V131.285Z" fill="#F0F0F0"/>
<path d="M164.062 133.308H162.856V134.513H164.062V133.308Z" fill="#F0F0F0"/>
<path d="M164.062 135.326H162.856V136.532H164.062V135.326Z" fill="#F0F0F0"/>
<path d="M164.062 137.349H162.856V138.555H164.062V137.349Z" fill="#F0F0F0"/>
<path d="M162.145 102.966H160.939V104.171H162.145V102.966Z" fill="#F0F0F0"/>
<path d="M162.145 104.989H160.939V106.194H162.145V104.989Z" fill="#F0F0F0"/>
<path d="M162.145 107.012H160.939V108.218H162.145V107.012Z" fill="#F0F0F0"/>
<path d="M162.145 109.036H160.939V110.241H162.145V109.036Z" fill="#F0F0F0"/>
<path d="M162.145 111.059H160.939V112.264H162.145V111.059Z" fill="#F0F0F0"/>
<path d="M162.145 113.082H160.939V114.287H162.145V113.082Z" fill="#F0F0F0"/>
<path d="M162.145 119.146H160.939V120.351H162.145V119.146Z" fill="#F0F0F0"/>
<path d="M162.145 121.169H160.939V122.375H162.145V121.169Z" fill="#F0F0F0"/>
<path d="M162.145 123.193H160.939V124.398H162.145V123.193Z" fill="#F0F0F0"/>
<path d="M162.145 125.216H160.939V126.421H162.145V125.216Z" fill="#F0F0F0"/>
<path d="M162.145 127.239H160.939V128.444H162.145V127.239Z" fill="#F0F0F0"/>
<path d="M162.145 129.262H160.939V130.467H162.145V129.262Z" fill="#F0F0F0"/>
<path d="M162.145 131.285H160.939V132.49H162.145V131.285Z" fill="#F0F0F0"/>
<path d="M162.145 133.308H160.939V134.513H162.145V133.308Z" fill="#F0F0F0"/>
<path d="M162.145 135.326H160.939V136.532H162.145V135.326Z" fill="#F0F0F0"/>
<path d="M162.145 137.349H160.939V138.555H162.145V137.349Z" fill="#F0F0F0"/>
<path d="M162.145 139.373H160.939V140.578H162.145V139.373Z" fill="#F0F0F0"/>
<path d="M162.145 143.419H160.939V144.624H162.145V143.419Z" fill="#F0F0F0"/>
<path d="M160.228 102.966H159.023V104.171H160.228V102.966Z" fill="#F0F0F0"/>
<path d="M160.228 104.989H159.023V106.194H160.228V104.989Z" fill="#F0F0F0"/>
<path d="M160.228 107.012H159.023V108.218H160.228V107.012Z" fill="#F0F0F0"/>
<path d="M160.228 109.036H159.023V110.241H160.228V109.036Z" fill="#F0F0F0"/>
<path d="M160.228 111.059H159.023V112.264H160.228V111.059Z" fill="#F0F0F0"/>
<path d="M160.228 113.082H159.023V114.287H160.228V113.082Z" fill="#F0F0F0"/>
<path d="M160.228 119.146H159.023V120.351H160.228V119.146Z" fill="#F0F0F0"/>
<path d="M160.228 121.169H159.023V122.375H160.228V121.169Z" fill="#F0F0F0"/>
<path d="M160.228 123.193H159.023V124.398H160.228V123.193Z" fill="#F0F0F0"/>
<path d="M160.228 125.216H159.023V126.421H160.228V125.216Z" fill="#F0F0F0"/>
<path d="M160.228 131.285H159.023V132.49H160.228V131.285Z" fill="#F0F0F0"/>
<path d="M160.228 133.308H159.023V134.513H160.228V133.308Z" fill="#F0F0F0"/>
<path d="M160.228 135.326H159.023V136.532H160.228V135.326Z" fill="#F0F0F0"/>
<path d="M160.228 137.349H159.023V138.555H160.228V137.349Z" fill="#F0F0F0"/>
<path d="M160.228 139.373H159.023V140.578H160.228V139.373Z" fill="#F0F0F0"/>
<path d="M160.228 143.419H159.023V144.624H160.228V143.419Z" fill="#F0F0F0"/>
<path d="M160.228 145.442H159.023V146.647H160.228V145.442Z" fill="#F0F0F0"/>
<path d="M142.843 121.774H141.638V122.98H142.843V121.774Z" fill="#F0F0F0"/>
<path d="M142.843 123.797H141.638V125.003H142.843V123.797Z" fill="#F0F0F0"/>
<path d="M142.843 125.821H141.638V127.026H142.843V125.821Z" fill="#F0F0F0"/>
<path d="M142.843 127.839H141.638V129.044H142.843V127.839Z" fill="#F0F0F0"/>
<path d="M142.843 129.862H141.638V131.067H142.843V129.862Z" fill="#F0F0F0"/>
<path d="M142.843 131.885H141.638V133.09H142.843V131.885Z" fill="#F0F0F0"/>
<path d="M142.843 133.908H141.638V135.113H142.843V133.908Z" fill="#F0F0F0"/>
<path d="M142.843 139.978H141.638V141.183H142.843V139.978Z" fill="#F0F0F0"/>
<path d="M142.843 142.001H141.638V143.206H142.843V142.001Z" fill="#F0F0F0"/>
<path d="M142.843 144.024H141.638V145.229H142.843V144.024Z" fill="#F0F0F0"/>
<path d="M140.926 121.774H139.721V122.98H140.926V121.774Z" fill="#F0F0F0"/>
<path d="M140.926 123.797H139.721V125.003H140.926V123.797Z" fill="#F0F0F0"/>
<path d="M140.926 125.821H139.721V127.026H140.926V125.821Z" fill="#F0F0F0"/>
<path d="M140.926 127.839H139.721V129.044H140.926V127.839Z" fill="#F0F0F0"/>
<path d="M140.926 129.862H139.721V131.067H140.926V129.862Z" fill="#F0F0F0"/>
<path d="M140.926 131.885H139.721V133.09H140.926V131.885Z" fill="#F0F0F0"/>
<path d="M140.926 133.908H139.721V135.113H140.926V133.908Z" fill="#F0F0F0"/>
<path d="M139.009 121.774H137.804V122.98H139.009V121.774Z" fill="#F0F0F0"/>
<path d="M139.009 123.797H137.804V125.003H139.009V123.797Z" fill="#F0F0F0"/>
<path d="M139.009 125.821H137.804V127.026H139.009V125.821Z" fill="#F0F0F0"/>
<path d="M139.009 127.839H137.804V129.044H139.009V127.839Z" fill="#F0F0F0"/>
<path d="M139.009 129.862H137.804V131.067H139.009V129.862Z" fill="#F0F0F0"/>
<path d="M139.009 131.885H137.804V133.09H139.009V131.885Z" fill="#F0F0F0"/>
<path d="M139.009 133.908H137.804V135.113H139.009V133.908Z" fill="#F0F0F0"/>
<path d="M137.093 121.774H135.888V122.98H137.093V121.774Z" fill="#F0F0F0"/>
<path d="M137.093 123.797H135.888V125.003H137.093V123.797Z" fill="#F0F0F0"/>
<path d="M137.093 125.821H135.888V127.026H137.093V125.821Z" fill="#F0F0F0"/>
<path d="M137.093 127.839H135.888V129.044H137.093V127.839Z" fill="#F0F0F0"/>
<path d="M137.093 129.862H135.888V131.067H137.093V129.862Z" fill="#F0F0F0"/>
<path d="M137.093 131.885H135.888V133.09H137.093V131.885Z" fill="#F0F0F0"/>
<path d="M137.093 133.908H135.888V135.113H137.093V133.908Z" fill="#F0F0F0"/>
<path d="M137.093 135.931H135.888V137.137H137.093V135.931Z" fill="#F0F0F0"/>
<path d="M137.093 137.955H135.888V139.16H137.093V137.955Z" fill="#F0F0F0"/>
<path d="M137.093 139.978H135.888V141.183H137.093V139.978Z" fill="#F0F0F0"/>
<path d="M137.093 142.001H135.888V143.206H137.093V142.001Z" fill="#F0F0F0"/>
<path d="M135.176 121.774H133.971V122.98H135.176V121.774Z" fill="#F0F0F0"/>
<path d="M135.176 123.797H133.971V125.003H135.176V123.797Z" fill="#F0F0F0"/>
<path d="M135.176 125.821H133.971V127.026H135.176V125.821Z" fill="#F0F0F0"/>
<path d="M135.176 127.839H133.971V129.044H135.176V127.839Z" fill="#F0F0F0"/>
<path d="M135.176 129.862H133.971V131.067H135.176V129.862Z" fill="#F0F0F0"/>
<path d="M135.176 131.885H133.971V133.09H135.176V131.885Z" fill="#F0F0F0"/>
<path d="M135.176 133.908H133.971V135.113H135.176V133.908Z" fill="#F0F0F0"/>
<path d="M135.176 135.931H133.971V137.137H135.176V135.931Z" fill="#F0F0F0"/>
<path d="M135.176 137.955H133.971V139.16H135.176V137.955Z" fill="#F0F0F0"/>
<path d="M135.176 139.978H133.971V141.183H135.176V139.978Z" fill="#F0F0F0"/>
<path d="M135.176 142.001H133.971V143.206H135.176V142.001Z" fill="#F0F0F0"/>
<path d="M135.176 144.024H133.971V145.229H135.176V144.024Z" fill="#F0F0F0"/>
<path d="M135.176 150.088H133.971V151.294H135.176V150.088Z" fill="#F0F0F0"/>
<path d="M135.176 152.112H133.971V153.317H135.176V152.112Z" fill="#F0F0F0"/>
<path d="M133.26 121.774H132.055V122.98H133.26V121.774Z" fill="#F0F0F0"/>
<path d="M133.26 123.797H132.055V125.003H133.26V123.797Z" fill="#F0F0F0"/>
<path d="M133.26 125.821H132.055V127.026H133.26V125.821Z" fill="#F0F0F0"/>
<path d="M133.26 131.885H132.055V133.09H133.26V131.885Z" fill="#F0F0F0"/>
<path d="M133.26 133.908H132.055V135.113H133.26V133.908Z" fill="#F0F0F0"/>
<path d="M133.26 135.931H132.055V137.137H133.26V135.931Z" fill="#F0F0F0"/>
<path d="M133.26 137.955H132.055V139.16H133.26V137.955Z" fill="#F0F0F0"/>
<path d="M133.26 139.978H132.055V141.183H133.26V139.978Z" fill="#F0F0F0"/>
<path d="M133.26 142.001H132.055V143.206H133.26V142.001Z" fill="#F0F0F0"/>
<path d="M133.26 144.024H132.055V145.229H133.26V144.024Z" fill="#F0F0F0"/>
<path d="M133.26 150.088H132.055V151.294H133.26V150.088Z" fill="#F0F0F0"/>
<path d="M133.26 152.112H132.055V153.317H133.26V152.112Z" fill="#F0F0F0"/>
<path d="M133.26 154.135H132.055V155.34H133.26V154.135Z" fill="#F0F0F0"/>
<path d="M113.178 109.636H111.973V110.841H113.178V109.636Z" fill="#F0F0F0"/>
<path d="M113.178 111.659H111.973V112.864H113.178V111.659Z" fill="#F0F0F0"/>
<path d="M113.178 113.682H111.973V114.887H113.178V113.682Z" fill="#F0F0F0"/>
<path d="M113.178 115.705H111.973V116.91H113.178V115.705Z" fill="#F0F0F0"/>
<path d="M113.178 117.728H111.973V118.933H113.178V117.728Z" fill="#F0F0F0"/>
<path d="M113.178 119.751H111.973V120.956H113.178V119.751Z" fill="#F0F0F0"/>
<path d="M113.178 121.774H111.973V122.98H113.178V121.774Z" fill="#F0F0F0"/>
<path d="M113.178 123.797H111.973V125.003H113.178V123.797Z" fill="#F0F0F0"/>
<path d="M113.178 125.821H111.973V127.026H113.178V125.821Z" fill="#F0F0F0"/>
<path d="M113.178 127.839H111.973V129.044H113.178V127.839Z" fill="#F0F0F0"/>
<path d="M113.178 129.862H111.973V131.067H113.178V129.862Z" fill="#F0F0F0"/>
<path d="M113.178 131.885H111.973V133.09H113.178V131.885Z" fill="#F0F0F0"/>
<path d="M113.178 133.908H111.973V135.113H113.178V133.908Z" fill="#F0F0F0"/>
<path d="M113.178 135.931H111.973V137.137H113.178V135.931Z" fill="#F0F0F0"/>
<path d="M113.178 137.955H111.973V139.16H113.178V137.955Z" fill="#F0F0F0"/>
<path d="M113.178 139.978H111.973V141.183H113.178V139.978Z" fill="#F0F0F0"/>
<path d="M113.178 142.001H111.973V143.206H113.178V142.001Z" fill="#F0F0F0"/>
<path d="M113.178 144.024H111.973V145.229H113.178V144.024Z" fill="#F0F0F0"/>
<path d="M113.178 146.047H111.973V147.252H113.178V146.047Z" fill="#F0F0F0"/>
<path d="M113.178 148.065H111.973V149.27H113.178V148.065Z" fill="#F0F0F0"/>
<path d="M113.178 150.088H111.973V151.294H113.178V150.088Z" fill="#F0F0F0"/>
<path d="M113.178 152.112H111.973V153.317H113.178V152.112Z" fill="#F0F0F0"/>
<path d="M113.178 154.135H111.973V155.34H113.178V154.135Z" fill="#F0F0F0"/>
<path d="M111.262 109.636H110.057V110.841H111.262V109.636Z" fill="#F0F0F0"/>
<path d="M111.262 111.659H110.057V112.864H111.262V111.659Z" fill="#F0F0F0"/>
<path d="M111.262 113.682H110.057V114.887H111.262V113.682Z" fill="#F0F0F0"/>
<path d="M111.262 115.705H110.057V116.91H111.262V115.705Z" fill="#F0F0F0"/>
<path d="M111.262 117.728H110.057V118.933H111.262V117.728Z" fill="#F0F0F0"/>
<path d="M111.262 119.751H110.057V120.956H111.262V119.751Z" fill="#F0F0F0"/>
<path d="M111.262 121.774H110.057V122.98H111.262V121.774Z" fill="#F0F0F0"/>
<path d="M111.262 123.797H110.057V125.003H111.262V123.797Z" fill="#F0F0F0"/>
<path d="M111.262 125.821H110.057V127.026H111.262V125.821Z" fill="#F0F0F0"/>
<path d="M111.262 127.839H110.057V129.044H111.262V127.839Z" fill="#F0F0F0"/>
<path d="M111.262 129.862H110.057V131.067H111.262V129.862Z" fill="#F0F0F0"/>
<path d="M111.262 131.885H110.057V133.09H111.262V131.885Z" fill="#F0F0F0"/>
<path d="M111.262 133.908H110.057V135.113H111.262V133.908Z" fill="#F0F0F0"/>
<path d="M111.262 135.931H110.057V137.137H111.262V135.931Z" fill="#F0F0F0"/>
<path d="M111.262 137.955H110.057V139.16H111.262V137.955Z" fill="#F0F0F0"/>
<path d="M111.262 139.978H110.057V141.183H111.262V139.978Z" fill="#F0F0F0"/>
<path d="M111.262 142.001H110.057V143.206H111.262V142.001Z" fill="#F0F0F0"/>
<path d="M111.262 144.024H110.057V145.229H111.262V144.024Z" fill="#F0F0F0"/>
<path d="M111.262 146.047H110.057V147.252H111.262V146.047Z" fill="#F0F0F0"/>
<path d="M109.345 109.636H108.14V110.841H109.345V109.636Z" fill="#F0F0F0"/>
<path d="M109.345 111.659H108.14V112.864H109.345V111.659Z" fill="#F0F0F0"/>
<path d="M109.345 113.682H108.14V114.887H109.345V113.682Z" fill="#F0F0F0"/>
<path d="M109.345 115.705H108.14V116.91H109.345V115.705Z" fill="#F0F0F0"/>
<path d="M109.345 117.728H108.14V118.933H109.345V117.728Z" fill="#F0F0F0"/>
<path d="M109.345 119.751H108.14V120.956H109.345V119.751Z" fill="#F0F0F0"/>
<path d="M109.345 121.774H108.14V122.98H109.345V121.774Z" fill="#F0F0F0"/>
<path d="M109.345 123.797H108.14V125.003H109.345V123.797Z" fill="#F0F0F0"/>
<path d="M109.345 125.821H108.14V127.026H109.345V125.821Z" fill="#F0F0F0"/>
<path d="M109.345 127.839H108.14V129.044H109.345V127.839Z" fill="#F0F0F0"/>
<path d="M109.345 129.862H108.14V131.067H109.345V129.862Z" fill="#F0F0F0"/>
<path d="M109.345 131.885H108.14V133.09H109.345V131.885Z" fill="#F0F0F0"/>
<path d="M109.345 133.908H108.14V135.113H109.345V133.908Z" fill="#F0F0F0"/>
<path d="M109.345 135.931H108.14V137.137H109.345V135.931Z" fill="#F0F0F0"/>
<path d="M109.345 137.955H108.14V139.16H109.345V137.955Z" fill="#F0F0F0"/>
<path d="M109.345 139.978H108.14V141.183H109.345V139.978Z" fill="#F0F0F0"/>
<path d="M109.345 142.001H108.14V143.206H109.345V142.001Z" fill="#F0F0F0"/>
<path d="M109.345 144.024H108.14V145.229H109.345V144.024Z" fill="#F0F0F0"/>
<path d="M109.345 146.047H108.14V147.252H109.345V146.047Z" fill="#F0F0F0"/>
<path d="M107.428 109.636H106.223V110.841H107.428V109.636Z" fill="#F0F0F0"/>
<path d="M107.428 111.659H106.223V112.864H107.428V111.659Z" fill="#F0F0F0"/>
<path d="M107.428 113.682H106.223V114.887H107.428V113.682Z" fill="#F0F0F0"/>
<path d="M107.428 115.705H106.223V116.91H107.428V115.705Z" fill="#F0F0F0"/>
<path d="M107.428 117.728H106.223V118.933H107.428V117.728Z" fill="#F0F0F0"/>
<path d="M107.428 119.751H106.223V120.956H107.428V119.751Z" fill="#F0F0F0"/>
<path d="M107.428 121.774H106.223V122.98H107.428V121.774Z" fill="#F0F0F0"/>
<path d="M107.428 123.797H106.223V125.003H107.428V123.797Z" fill="#F0F0F0"/>
<path d="M107.428 125.821H106.223V127.026H107.428V125.821Z" fill="#F0F0F0"/>
<path d="M107.428 127.839H106.223V129.044H107.428V127.839Z" fill="#F0F0F0"/>
<path d="M107.428 129.862H106.223V131.067H107.428V129.862Z" fill="#F0F0F0"/>
<path d="M107.428 131.885H106.223V133.09H107.428V131.885Z" fill="#F0F0F0"/>
<path d="M107.428 133.908H106.223V135.113H107.428V133.908Z" fill="#F0F0F0"/>
<path d="M107.428 135.931H106.223V137.137H107.428V135.931Z" fill="#F0F0F0"/>
<path d="M107.428 137.955H106.223V139.16H107.428V137.955Z" fill="#F0F0F0"/>
<path d="M105.512 109.636H104.307V110.841H105.512V109.636Z" fill="#F0F0F0"/>
<path d="M105.512 111.659H104.307V112.864H105.512V111.659Z" fill="#F0F0F0"/>
<path d="M105.512 113.682H104.307V114.887H105.512V113.682Z" fill="#F0F0F0"/>
<path d="M105.512 115.705H104.307V116.91H105.512V115.705Z" fill="#F0F0F0"/>
<path d="M105.512 117.728H104.307V118.933H105.512V117.728Z" fill="#F0F0F0"/>
<path d="M105.512 119.751H104.307V120.956H105.512V119.751Z" fill="#F0F0F0"/>
<path d="M105.512 121.774H104.307V122.98H105.512V121.774Z" fill="#F0F0F0"/>
<path d="M105.512 123.797H104.307V125.003H105.512V123.797Z" fill="#F0F0F0"/>
<path d="M105.512 125.821H104.307V127.026H105.512V125.821Z" fill="#F0F0F0"/>
<path d="M105.512 127.839H104.307V129.044H105.512V127.839Z" fill="#F0F0F0"/>
<path d="M105.512 129.862H104.307V131.067H105.512V129.862Z" fill="#F0F0F0"/>
<path d="M105.512 131.885H104.307V133.09H105.512V131.885Z" fill="#F0F0F0"/>
<path d="M105.512 133.908H104.307V135.113H105.512V133.908Z" fill="#F0F0F0"/>
<path d="M103.595 109.636H102.39V110.841H103.595V109.636Z" fill="#F0F0F0"/>
<path d="M103.595 111.659H102.39V112.864H103.595V111.659Z" fill="#F0F0F0"/>
<path d="M103.595 113.682H102.39V114.887H103.595V113.682Z" fill="#F0F0F0"/>
<path d="M103.595 115.705H102.39V116.91H103.595V115.705Z" fill="#F0F0F0"/>
<path d="M103.595 117.728H102.39V118.933H103.595V117.728Z" fill="#F0F0F0"/>
<path d="M103.595 119.751H102.39V120.956H103.595V119.751Z" fill="#F0F0F0"/>
<path d="M103.595 121.774H102.39V122.98H103.595V121.774Z" fill="#F0F0F0"/>
<path d="M103.595 123.797H102.39V125.003H103.595V123.797Z" fill="#F0F0F0"/>
<path d="M103.595 125.821H102.39V127.026H103.595V125.821Z" fill="#F0F0F0"/>
<path d="M103.595 127.839H102.39V129.044H103.595V127.839Z" fill="#F0F0F0"/>
<path d="M103.595 129.862H102.39V131.067H103.595V129.862Z" fill="#F0F0F0"/>
<path d="M103.595 131.885H102.39V133.09H103.595V131.885Z" fill="#F0F0F0"/>
<path d="M178.185 123.193H176.979V124.398H178.185V123.193Z" fill="#F0F0F0"/>
<path d="M178.185 125.216H176.979V126.421H178.185V125.216Z" fill="#F0F0F0"/>
<path d="M178.185 127.239H176.979V128.444H178.185V127.239Z" fill="#F0F0F0"/>
<path d="M178.185 129.262H176.979V130.467H178.185V129.262Z" fill="#F0F0F0"/>
<path d="M178.185 131.285H176.979V132.49H178.185V131.285Z" fill="#F0F0F0"/>
<path d="M178.185 133.308H176.979V134.513H178.185V133.308Z" fill="#F0F0F0"/>
<path d="M178.185 135.326H176.979V136.532H178.185V135.326Z" fill="#F0F0F0"/>
<path d="M178.185 137.349H176.979V138.555H178.185V137.349Z" fill="#F0F0F0"/>
<path d="M178.185 139.373H176.979V140.578H178.185V139.373Z" fill="#F0F0F0"/>
<path d="M178.185 141.396H176.979V142.601H178.185V141.396Z" fill="#F0F0F0"/>
<path d="M178.185 143.419H176.979V144.624H178.185V143.419Z" fill="#F0F0F0"/>
<path d="M178.185 145.442H176.979V146.647H178.185V145.442Z" fill="#F0F0F0"/>
<path d="M178.185 147.465H176.979V148.67H178.185V147.465Z" fill="#F0F0F0"/>
<path d="M178.185 151.511H176.979V152.717H178.185V151.511Z" fill="#F0F0F0"/>
<path d="M178.185 153.53H176.979V154.735H178.185V153.53Z" fill="#F0F0F0"/>
<path d="M178.185 155.553H176.979V156.758H178.185V155.553Z" fill="#F0F0F0"/>
<path d="M178.185 157.576H176.979V158.781H178.185V157.576Z" fill="#F0F0F0"/>
<path d="M178.185 161.622H176.979V162.827H178.185V161.622Z" fill="#F0F0F0"/>
<path d="M178.185 163.645H176.979V164.85H178.185V163.645Z" fill="#F0F0F0"/>
<path d="M178.185 165.668H176.979V166.873H178.185V165.668Z" fill="#F0F0F0"/>
<path d="M176.268 123.193H175.062V124.398H176.268V123.193Z" fill="#F0F0F0"/>
<path d="M176.268 125.216H175.062V126.421H176.268V125.216Z" fill="#F0F0F0"/>
<path d="M176.268 127.239H175.062V128.444H176.268V127.239Z" fill="#F0F0F0"/>
<path d="M176.268 129.262H175.062V130.467H176.268V129.262Z" fill="#F0F0F0"/>
<path d="M176.268 131.285H175.062V132.49H176.268V131.285Z" fill="#F0F0F0"/>
<path d="M176.268 133.308H175.062V134.513H176.268V133.308Z" fill="#F0F0F0"/>
<path d="M176.268 135.326H175.062V136.532H176.268V135.326Z" fill="#F0F0F0"/>
<path d="M176.268 137.349H175.062V138.555H176.268V137.349Z" fill="#F0F0F0"/>
<path d="M176.268 139.373H175.062V140.578H176.268V139.373Z" fill="#F0F0F0"/>
<path d="M176.268 141.396H175.062V142.601H176.268V141.396Z" fill="#F0F0F0"/>
<path d="M176.268 143.419H175.062V144.624H176.268V143.419Z" fill="#F0F0F0"/>
<path d="M176.268 145.442H175.062V146.647H176.268V145.442Z" fill="#F0F0F0"/>
<path d="M176.268 147.465H175.062V148.67H176.268V147.465Z" fill="#F0F0F0"/>
<path d="M176.268 153.53H175.062V154.735H176.268V153.53Z" fill="#F0F0F0"/>
<path d="M176.268 155.553H175.062V156.758H176.268V155.553Z" fill="#F0F0F0"/>
<path d="M176.268 159.599H175.062V160.804H176.268V159.599Z" fill="#F0F0F0"/>
<path d="M176.268 161.622H175.062V162.827H176.268V161.622Z" fill="#F0F0F0"/>
<path d="M176.268 163.645H175.062V164.85H176.268V163.645Z" fill="#F0F0F0"/>
<path d="M176.268 165.668H175.062V166.873H176.268V165.668Z" fill="#F0F0F0"/>
<path d="M174.351 123.193H173.146V124.398H174.351V123.193Z" fill="#F0F0F0"/>
<path d="M174.351 125.216H173.146V126.421H174.351V125.216Z" fill="#F0F0F0"/>
<path d="M174.351 127.239H173.146V128.444H174.351V127.239Z" fill="#F0F0F0"/>
<path d="M174.351 129.262H173.146V130.467H174.351V129.262Z" fill="#F0F0F0"/>
<path d="M174.351 131.285H173.146V132.49H174.351V131.285Z" fill="#F0F0F0"/>
<path d="M174.351 133.308H173.146V134.513H174.351V133.308Z" fill="#F0F0F0"/>
<path d="M174.351 135.326H173.146V136.532H174.351V135.326Z" fill="#F0F0F0"/>
<path d="M174.351 137.349H173.146V138.555H174.351V137.349Z" fill="#F0F0F0"/>
<path d="M174.351 139.373H173.146V140.578H174.351V139.373Z" fill="#F0F0F0"/>
<path d="M174.351 141.396H173.146V142.601H174.351V141.396Z" fill="#F0F0F0"/>
<path d="M174.351 143.419H173.146V144.624H174.351V143.419Z" fill="#F0F0F0"/>
<path d="M174.351 145.442H173.146V146.647H174.351V145.442Z" fill="#F0F0F0"/>
<path d="M174.351 147.465H173.146V148.67H174.351V147.465Z" fill="#F0F0F0"/>
<path d="M174.351 149.488H173.146V150.693H174.351V149.488Z" fill="#F0F0F0"/>
<path d="M174.351 153.53H173.146V154.735H174.351V153.53Z" fill="#F0F0F0"/>
<path d="M174.351 157.576H173.146V158.781H174.351V157.576Z" fill="#F0F0F0"/>
<path d="M174.351 159.599H173.146V160.804H174.351V159.599Z" fill="#F0F0F0"/>
<path d="M174.351 161.622H173.146V162.827H174.351V161.622Z" fill="#F0F0F0"/>
<path d="M174.351 163.645H173.146V164.85H174.351V163.645Z" fill="#F0F0F0"/>
<path d="M174.351 165.668H173.146V166.873H174.351V165.668Z" fill="#F0F0F0"/>
<path d="M185.991 134.726H184.786V135.931H185.991V134.726Z" fill="#F0F0F0"/>
<path d="M185.991 136.749H184.786V137.954H185.991V136.749Z" fill="#F0F0F0"/>
<path d="M185.991 138.773H184.786V139.978H185.991V138.773Z" fill="#F0F0F0"/>
<path d="M185.991 140.791H184.786V141.996H185.991V140.791Z" fill="#F0F0F0"/>
<path d="M185.991 142.814H184.786V144.019H185.991V142.814Z" fill="#F0F0F0"/>
<path d="M185.991 144.837H184.786V146.042H185.991V144.837Z" fill="#F0F0F0"/>
<path d="M185.991 150.906H184.786V152.112H185.991V150.906Z" fill="#F0F0F0"/>
<path d="M185.991 152.93H184.786V154.135H185.991V152.93Z" fill="#F0F0F0"/>
<path d="M185.991 154.953H184.786V156.158H185.991V154.953Z" fill="#F0F0F0"/>
<path d="M185.991 156.976H184.786V158.181H185.991V156.976Z" fill="#F0F0F0"/>
<path d="M185.991 158.999H184.786V160.204H185.991V158.999Z" fill="#F0F0F0"/>
<path d="M185.991 161.017H184.786V162.222H185.991V161.017Z" fill="#F0F0F0"/>
<path d="M185.991 163.04H184.786V164.245H185.991V163.04Z" fill="#F0F0F0"/>
<path d="M184.075 134.726H182.87V135.931H184.075V134.726Z" fill="#F0F0F0"/>
<path d="M184.075 136.749H182.87V137.954H184.075V136.749Z" fill="#F0F0F0"/>
<path d="M184.075 138.773H182.87V139.978H184.075V138.773Z" fill="#F0F0F0"/>
<path d="M184.075 140.791H182.87V141.996H184.075V140.791Z" fill="#F0F0F0"/>
<path d="M184.075 142.814H182.87V144.019H184.075V142.814Z" fill="#F0F0F0"/>
<path d="M184.075 144.837H182.87V146.042H184.075V144.837Z" fill="#F0F0F0"/>
<path d="M184.075 150.906H182.87V152.112H184.075V150.906Z" fill="#F0F0F0"/>
<path d="M184.075 152.93H182.87V154.135H184.075V152.93Z" fill="#F0F0F0"/>
<path d="M184.075 154.953H182.87V156.158H184.075V154.953Z" fill="#F0F0F0"/>
<path d="M184.075 156.976H182.87V158.181H184.075V156.976Z" fill="#F0F0F0"/>
<path d="M184.075 158.999H182.87V160.204H184.075V158.999Z" fill="#F0F0F0"/>
<path d="M184.075 161.017H182.87V162.222H184.075V161.017Z" fill="#F0F0F0"/>
<path d="M184.075 165.063H182.87V166.269H184.075V165.063Z" fill="#F0F0F0"/>
<path d="M120.415 125.821H119.209V127.026H120.415V125.821Z" fill="#F0F0F0"/>
<path d="M120.415 127.839H119.209V129.044H120.415V127.839Z" fill="#F0F0F0"/>
<path d="M120.415 129.862H119.209V131.067H120.415V129.862Z" fill="#F0F0F0"/>
<path d="M120.415 131.885H119.209V133.09H120.415V131.885Z" fill="#F0F0F0"/>
<path d="M120.415 133.908H119.209V135.113H120.415V133.908Z" fill="#F0F0F0"/>
<path d="M120.415 135.931H119.209V137.137H120.415V135.931Z" fill="#F0F0F0"/>
<path d="M120.415 137.955H119.209V139.16H120.415V137.955Z" fill="#F0F0F0"/>
<path d="M120.415 139.978H119.209V141.183H120.415V139.978Z" fill="#F0F0F0"/>
<path d="M120.415 142.001H119.209V143.206H120.415V142.001Z" fill="#F0F0F0"/>
<path d="M120.415 144.024H119.209V145.229H120.415V144.024Z" fill="#F0F0F0"/>
<path d="M120.415 146.047H119.209V147.252H120.415V146.047Z" fill="#F0F0F0"/>
<path d="M120.415 150.088H119.209V151.294H120.415V150.088Z" fill="#F0F0F0"/>
<path d="M120.415 152.112H119.209V153.317H120.415V152.112Z" fill="#F0F0F0"/>
<path d="M120.415 154.135H119.209V155.34H120.415V154.135Z" fill="#F0F0F0"/>
<path d="M120.415 156.158H119.209V157.363H120.415V156.158Z" fill="#F0F0F0"/>
<path d="M120.415 158.181H119.209V159.386H120.415V158.181Z" fill="#F0F0F0"/>
<path d="M120.415 160.204H119.209V161.409H120.415V160.204Z" fill="#F0F0F0"/>
<path d="M120.415 162.227H119.209V163.432H120.415V162.227Z" fill="#F0F0F0"/>
<path d="M120.415 164.25H119.209V165.455H120.415V164.25Z" fill="#F0F0F0"/>
<path d="M118.503 125.821H117.297V127.026H118.503V125.821Z" fill="#F0F0F0"/>
<path d="M118.503 127.839H117.297V129.044H118.503V127.839Z" fill="#F0F0F0"/>
<path d="M118.503 129.862H117.297V131.067H118.503V129.862Z" fill="#F0F0F0"/>
<path d="M118.503 131.885H117.297V133.09H118.503V131.885Z" fill="#F0F0F0"/>
<path d="M118.503 133.908H117.297V135.113H118.503V133.908Z" fill="#F0F0F0"/>
<path d="M118.503 135.931H117.297V137.137H118.503V135.931Z" fill="#F0F0F0"/>
<path d="M118.503 137.955H117.297V139.16H118.503V137.955Z" fill="#F0F0F0"/>
<path d="M118.503 139.978H117.297V141.183H118.503V139.978Z" fill="#F0F0F0"/>
<path d="M118.503 142.001H117.297V143.206H118.503V142.001Z" fill="#F0F0F0"/>
<path d="M118.503 144.024H117.297V145.229H118.503V144.024Z" fill="#F0F0F0"/>
<path d="M118.503 146.047H117.297V147.252H118.503V146.047Z" fill="#F0F0F0"/>
<path d="M118.503 148.065H117.297V149.27H118.503V148.065Z" fill="#F0F0F0"/>
<path d="M118.503 150.088H117.297V151.294H118.503V150.088Z" fill="#F0F0F0"/>
<path d="M118.503 152.112H117.297V153.317H118.503V152.112Z" fill="#F0F0F0"/>
<path d="M118.503 154.135H117.297V155.34H118.503V154.135Z" fill="#F0F0F0"/>
<path d="M118.503 156.158H117.297V157.363H118.503V156.158Z" fill="#F0F0F0"/>
<path d="M118.503 158.181H117.297V159.386H118.503V158.181Z" fill="#F0F0F0"/>
<path d="M118.503 160.204H117.297V161.409H118.503V160.204Z" fill="#F0F0F0"/>
<path d="M118.503 162.227H117.297V163.432H118.503V162.227Z" fill="#F0F0F0"/>
<path d="M118.503 164.25H117.297V165.455H118.503V164.25Z" fill="#F0F0F0"/>
<path d="M129.857 133.695H128.652V134.9H129.857V133.695Z" fill="#F0F0F0"/>
<path d="M129.857 135.718H128.652V136.924H129.857V135.718Z" fill="#F0F0F0"/>
<path d="M129.857 137.742H128.652V138.947H129.857V137.742Z" fill="#F0F0F0"/>
<path d="M129.857 139.765H128.652V140.97H129.857V139.765Z" fill="#F0F0F0"/>
<path d="M129.857 141.788H128.652V142.993H129.857V141.788Z" fill="#F0F0F0"/>
<path d="M129.857 143.811H128.652V145.016H129.857V143.811Z" fill="#F0F0F0"/>
<path d="M129.857 145.834H128.652V147.039H129.857V145.834Z" fill="#F0F0F0"/>
<path d="M129.857 147.852H128.652V149.058H129.857V147.852Z" fill="#F0F0F0"/>
<path d="M129.857 149.875H128.652V151.081H129.857V149.875Z" fill="#F0F0F0"/>
<path d="M129.857 151.899H128.652V153.104H129.857V151.899Z" fill="#F0F0F0"/>
<path d="M127.941 133.695H126.735V134.9H127.941V133.695Z" fill="#F0F0F0"/>
<path d="M127.941 135.718H126.735V136.924H127.941V135.718Z" fill="#F0F0F0"/>
<path d="M127.941 137.742H126.735V138.947H127.941V137.742Z" fill="#F0F0F0"/>
<path d="M127.941 139.765H126.735V140.97H127.941V139.765Z" fill="#F0F0F0"/>
<path d="M127.941 141.788H126.735V142.993H127.941V141.788Z" fill="#F0F0F0"/>
<path d="M127.941 143.811H126.735V145.016H127.941V143.811Z" fill="#F0F0F0"/>
<path d="M127.941 145.834H126.735V147.039H127.941V145.834Z" fill="#F0F0F0"/>
<path d="M127.941 147.852H126.735V149.058H127.941V147.852Z" fill="#F0F0F0"/>
<path d="M127.941 149.875H126.735V151.081H127.941V149.875Z" fill="#F0F0F0"/>
<path d="M139.339 56.9377H137.315V169.748H139.339V56.9377Z" fill="#E0E0E0"/>
<path d="M177.434 56.9377H175.411V169.748H177.434V56.9377Z" fill="#E0E0E0"/>
<path d="M71.5447 158.752H84.0222C84.5883 158.752 85.1312 158.977 85.5315 159.377C85.9318 159.777 86.1567 160.32 86.1567 160.886V185.004H69.4151V160.906C69.4126 160.624 69.4657 160.345 69.5716 160.084C69.6774 159.823 69.8338 159.586 70.0317 159.386C70.2296 159.186 70.4652 159.026 70.7249 158.918C70.9846 158.809 71.2632 158.753 71.5447 158.752Z" fill="#F0F0F0"/>
<path d="M86.1571 162.324H69.4155V164.207H86.1571V162.324Z" fill="#E6E6E6"/>
<path d="M78.9356 181.844H83.1077C83.4119 181.844 83.7037 181.964 83.9188 182.18C84.1339 182.395 84.2548 182.686 84.2548 182.991V185.024H77.7837V182.991C77.7837 182.84 77.8135 182.69 77.8715 182.551C77.9294 182.411 78.0143 182.284 78.1214 182.178C78.2284 182.071 78.3554 181.987 78.4951 181.93C78.6349 181.872 78.7846 181.843 78.9356 181.844V181.844Z" fill="#E0E0E0"/>
<path d="M84.2742 185.024H79.6374C79.4398 185.024 79.2502 184.945 79.1104 184.805C78.9706 184.665 78.8921 184.476 78.8921 184.278V184.278C78.8934 184.081 78.9725 183.893 79.1121 183.754C79.2517 183.616 79.4406 183.538 79.6374 183.538H84.2742C84.471 183.538 84.6599 183.616 84.7995 183.754C84.9392 183.893 85.0183 184.081 85.0195 184.278V184.278C85.0195 184.476 84.941 184.665 84.8012 184.805C84.6614 184.945 84.4718 185.024 84.2742 185.024Z" fill="#E6E6E6"/>
<path d="M158.614 51.6451C164.74 50.199 168.535 44.0601 167.089 37.9334C165.643 31.8067 159.504 28.0122 153.377 29.4583C147.25 30.9043 143.456 37.0432 144.902 43.1699C146.348 49.2967 152.487 53.0911 158.614 51.6451Z" fill="#E0E0E0"/>
<path d="M157.546 50.1076C162.83 49.2498 166.419 44.27 165.561 38.985C164.704 33.7001 159.724 30.1112 154.439 30.9691C149.154 31.827 145.565 36.8067 146.423 42.0917C147.281 47.3766 152.261 50.9655 157.546 50.1076Z" fill="#F0F0F0"/>
<path d="M156.453 33.8945V40.6705L160.94 38.1295" fill="#F0F0F0"/>
<path d="M156.453 41.14C156.366 41.14 156.281 41.1166 156.206 41.0722C156.134 41.0294 156.074 40.9685 156.033 40.8955C155.991 40.8225 155.969 40.74 155.969 40.656V33.88C155.969 33.7516 156.02 33.6285 156.111 33.5378C156.202 33.447 156.325 33.396 156.453 33.396C156.582 33.396 156.705 33.447 156.795 33.5378C156.886 33.6285 156.937 33.7516 156.937 33.88V39.838L160.703 37.7084C160.814 37.6457 160.946 37.6299 161.07 37.6644C161.193 37.6988 161.298 37.7808 161.361 37.8924C161.424 38.0035 161.441 38.1351 161.407 38.2584C161.374 38.3817 161.293 38.4867 161.182 38.5506L156.69 41.0916C156.616 41.1259 156.535 41.1425 156.453 41.14V41.14Z" fill="#E0E0E0"/>
<path d="M46.9141 151.802C46.0429 150.35 44.6102 151.613 44.6102 151.613C44.8135 148.864 42.287 146.986 42.287 146.986C42.287 146.986 45.2249 146.986 45.6315 144.184C46.038 141.381 44.6102 142.683 43.2647 142.664C41.9192 142.644 40.5107 146.575 42.2967 148.786C44.0827 150.998 43.5938 154.774 39.4943 158.404C38.514 159.321 37.7786 160.469 37.3551 161.743C37.6648 158.408 37.8391 153.709 36.8711 150.572C35.2061 145.248 38.3811 143.796 39.2911 141.144C40.201 138.492 36.8711 136.227 36.8711 136.227C36.8711 136.227 40.0219 134.775 38.4828 133.153C36.9437 131.532 33.7686 131.735 33.7686 133.879C33.7686 136.023 35.9224 136.841 35.9224 136.841C35.9224 136.841 38.3811 139.402 38.3811 140.713C38.3811 142.025 35.9224 144.914 35.9224 144.914C35.9224 144.914 37.0501 142.461 34.7947 142.359C32.5393 142.257 31.8229 145.224 32.7474 146.555C33.6718 147.886 35.2061 146.763 35.2061 146.763C35.3023 148.317 35.5372 149.859 35.9079 151.371C36.1402 152.141 36.0337 155.146 35.8401 158.273C35.4121 157.144 34.7278 156.13 33.8412 155.311C29.7417 151.681 29.2674 147.906 31.0437 145.694C32.82 143.482 31.4115 139.552 30.0757 139.571C28.7399 139.59 27.2927 138.284 27.7041 141.086C28.1155 143.888 31.0534 143.893 31.0534 143.893C31.0534 143.893 28.5221 145.771 28.7253 148.52C28.7253 148.52 27.2733 147.272 26.4215 148.709C24.8679 151.269 28.4737 152.857 29.0787 151.613C29.0787 151.613 36.721 157.024 34.8867 164.812L35.3126 165.446C35.2593 166.075 35.2255 166.452 35.2255 166.452L35.8208 166.196L36.5032 167.198C36.4794 168.33 36.5376 169.462 36.6775 170.586L38.5021 167.885C36.6581 160.098 44.3101 154.686 44.3101 154.686C44.8667 155.954 48.4677 154.362 46.9141 151.802Z" fill="#E0E0E0"/>
<path opacity="0.2" d="M46.9141 151.802C46.0429 150.35 44.6102 151.613 44.6102 151.613C44.8135 148.864 42.287 146.986 42.287 146.986C42.287 146.986 45.2249 146.986 45.6315 144.184C46.038 141.381 44.6102 142.683 43.2647 142.664C41.9192 142.644 40.5107 146.575 42.2967 148.786C44.0827 150.998 43.5938 154.774 39.4943 158.404C38.514 159.321 37.7786 160.469 37.3551 161.743C37.6648 158.408 37.8391 153.709 36.8711 150.572C35.2061 145.248 38.3811 143.796 39.2911 141.144C40.201 138.492 36.8711 136.227 36.8711 136.227C36.8711 136.227 40.0219 134.775 38.4828 133.153C36.9437 131.532 33.7686 131.735 33.7686 133.879C33.7686 136.023 35.9224 136.841 35.9224 136.841C35.9224 136.841 38.3811 139.402 38.3811 140.713C38.3811 142.025 35.9224 144.914 35.9224 144.914C35.9224 144.914 37.0501 142.461 34.7947 142.359C32.5393 142.257 31.8229 145.224 32.7474 146.555C33.6718 147.886 35.2061 146.763 35.2061 146.763C35.3023 148.317 35.5372 149.859 35.9079 151.371C36.1402 152.141 36.0337 155.146 35.8401 158.273C35.4121 157.144 34.7278 156.13 33.8412 155.311C29.7417 151.681 29.2674 147.906 31.0437 145.694C32.82 143.482 31.4115 139.552 30.0757 139.571C28.7399 139.59 27.2927 138.284 27.7041 141.086C28.1155 143.888 31.0534 143.893 31.0534 143.893C31.0534 143.893 28.5221 145.771 28.7253 148.52C28.7253 148.52 27.2733 147.272 26.4215 148.709C24.8679 151.269 28.4737 152.857 29.0787 151.613C29.0787 151.613 36.721 157.024 34.8867 164.812L35.3126 165.446C35.2593 166.075 35.2255 166.452 35.2255 166.452L35.8208 166.196L36.5032 167.198C36.4794 168.33 36.5376 169.462 36.6775 170.586L38.5021 167.885C36.6581 160.098 44.3101 154.686 44.3101 154.686C44.8667 155.954 48.4677 154.362 46.9141 151.802Z" fill="#E0E0E0"/>
<path d="M45.4188 185.024H27.9125L26.0249 165.857H47.3112L45.4188 185.024Z" fill="#E6E6E6"/>
<path d="M48.24 163.742H25.0854V167.972H48.24V163.742Z" fill="#F0F0F0"/>
<path d="M121 206.939C172.828 206.939 214.843 204.486 214.843 201.46C214.843 198.434 172.828 195.981 121 195.981C69.1721 195.981 27.1572 198.434 27.1572 201.46C27.1572 204.486 69.1721 206.939 121 206.939Z" fill="#F5F5F5"/>
<path d="M198.657 186.204C198.73 185.72 200.424 174.022 197.031 169.986C196.693 169.56 196.266 169.215 195.779 168.975C195.292 168.735 194.757 168.605 194.214 168.597C187.361 168.437 186.427 173.921 186.417 173.993L187.225 174.119C187.254 173.921 188.067 169.279 194.195 169.414C194.622 169.42 195.042 169.522 195.425 169.711C195.807 169.9 196.143 170.173 196.407 170.508C199.562 174.269 197.859 185.962 197.859 186.083L198.657 186.204Z" fill="#FF6700"/>
<path d="M199.069 185.672L199.887 185.643C199.887 185.536 199.616 174.874 204.868 172.672C210.017 170.518 212.336 174.951 212.428 175.14L213.159 174.772C213.134 174.719 210.414 169.448 204.553 171.922C198.784 174.337 199.055 185.207 199.069 185.672Z" fill="#FF6700"/>
<path d="M199.045 186.509C199.045 186.34 199.098 169.477 202.384 164.545C205.54 159.807 210.612 162.038 210.849 162.125L211.183 161.38C211.125 161.356 205.249 158.762 201.702 164.081C198.28 169.216 198.231 185.793 198.231 186.5L199.045 186.509Z" fill="#FF6700"/>
<path d="M193.232 169.003C193.232 169.003 196.223 170.107 195.332 172.706C194.442 175.305 184.989 179.593 184.989 179.593C184.989 179.593 181.025 175.963 184.665 170.058C188.305 164.153 193.15 167.14 193.232 169.003Z" fill="#FF6700"/>
<path d="M202.529 163.655C202.529 163.655 200.409 163.427 200.593 162.135C200.777 160.843 208.85 157.513 213.618 162.895C213.618 162.895 210.564 168.142 206.15 168.219C201.736 168.296 202.529 163.655 202.529 163.655Z" fill="#FF6700"/>
<path d="M204.732 172.304C204.732 172.304 203.28 171.123 204.848 170.547C206.416 169.971 214.189 170.131 214.266 177.807C214.266 177.807 205.23 179.312 204.102 176.384C202.975 173.456 204.732 172.304 204.732 172.304Z" fill="#FF6700"/>
<path opacity="0.2" d="M193.232 169.003C193.232 169.003 196.223 170.107 195.332 172.706C194.442 175.305 184.989 179.593 184.989 179.593C184.989 179.593 181.025 175.963 184.665 170.058C188.305 164.153 193.15 167.14 193.232 169.003Z" fill="black"/>
<path opacity="0.2" d="M202.529 163.655C202.529 163.655 200.409 163.427 200.593 162.135C200.777 160.843 208.85 157.513 213.618 162.895C213.618 162.895 210.564 168.142 206.15 168.219C201.736 168.296 202.529 163.655 202.529 163.655Z" fill="black"/>
<path opacity="0.2" d="M204.732 172.304C204.732 172.304 203.28 171.123 204.848 170.547C206.416 169.971 214.189 170.131 214.266 177.807C214.266 177.807 205.23 179.312 204.102 176.384C202.975 173.456 204.732 172.304 204.732 172.304Z" fill="black"/>
<path d="M191.625 201.862H205.651L207.161 186.509H190.115L191.625 201.862Z" fill="#FF6700"/>
<path opacity="0.5" d="M191.625 201.862H205.651L207.161 186.509H190.115L191.625 201.862Z" fill="white"/>
<path d="M189.365 188.198H207.912V184.811H189.365V188.198Z" fill="#FF6700"/>
<path opacity="0.2" d="M189.365 188.198H207.912V184.811H189.365V188.198Z" fill="white"/>
<path d="M175.75 190.856L161.806 189.486V169.884H156.279V189.476L142.296 190.856C141.626 190.922 141.004 191.235 140.551 191.734C140.098 192.233 139.848 192.883 139.847 193.556V195.652H178.219V193.556C178.219 192.879 177.966 192.227 177.509 191.727C177.052 191.227 176.425 190.916 175.75 190.856V190.856Z" fill="#263238"/>
<path opacity="0.2" d="M175.75 190.856L161.806 189.486V169.884H156.279V189.476L142.296 190.856C141.626 190.922 141.004 191.235 140.551 191.734C140.098 192.233 139.848 192.883 139.847 193.556V195.652H178.219V193.556C178.219 192.879 177.966 192.227 177.509 191.727C177.052 191.227 176.425 190.916 175.75 190.856V190.856Z" fill="white"/>
<path d="M141.304 201.867C143.301 201.867 144.919 200.248 144.919 198.251C144.919 196.254 143.301 194.636 141.304 194.636C139.307 194.636 137.688 196.254 137.688 198.251C137.688 200.248 139.307 201.867 141.304 201.867Z" fill="#263238"/>
<path d="M176.728 201.867C178.725 201.867 180.343 200.248 180.343 198.251C180.343 196.254 178.725 194.636 176.728 194.636C174.731 194.636 173.112 196.254 173.112 198.251C173.112 200.248 174.731 201.867 176.728 201.867Z" fill="#263238"/>
<path d="M155.33 156.642H162.759V172.096C162.759 172.626 162.549 173.134 162.174 173.509C161.799 173.884 161.291 174.095 160.761 174.095H157.329C156.799 174.095 156.29 173.884 155.916 173.509C155.541 173.134 155.33 172.626 155.33 172.096V156.642V156.642Z" fill="#263238"/>
<path opacity="0.3" d="M155.33 156.642H162.759V172.096C162.759 172.626 162.549 173.134 162.174 173.509C161.799 173.884 161.291 174.095 160.761 174.095H157.329C156.799 174.095 156.29 173.884 155.916 173.509C155.541 173.134 155.33 172.626 155.33 172.096V156.642V156.642Z" fill="white"/>
<path d="M172.255 126.009C172.255 126.009 173.311 152.145 166.031 156.642H174.342C174.342 156.642 180.779 147.741 178.959 126.009H172.255Z" fill="#263238"/>
<path opacity="0.3" d="M172.255 126.009C172.255 126.009 173.311 152.145 166.031 156.642H174.342C174.342 156.642 180.779 147.741 178.959 126.009H172.255Z" fill="white"/>
<path d="M177.168 158.646H139.939V155.408C139.939 154.766 140.194 154.15 140.648 153.696C141.102 153.243 141.717 152.988 142.359 152.988H174.748C175.39 152.988 176.006 153.243 176.46 153.696C176.914 154.15 177.168 154.766 177.168 155.408V158.646Z" fill="#263238"/>
<path d="M139.358 158.646H177.744C178.282 158.646 178.717 158.21 178.717 157.673V156.792C178.717 156.255 178.282 155.819 177.744 155.819H139.358C138.821 155.819 138.386 156.255 138.386 156.792V157.673C138.386 158.21 138.821 158.646 139.358 158.646Z" fill="#263238"/>
<path opacity="0.6" d="M139.358 158.646H177.744C178.282 158.646 178.717 158.21 178.717 157.673V156.792C178.717 156.255 178.282 155.819 177.744 155.819H139.358C138.821 155.819 138.386 156.255 138.386 156.792V157.673C138.386 158.21 138.821 158.646 139.358 158.646Z" fill="white"/>
<path d="M180.997 111.998H167.687C163.789 111.998 160.63 115.157 160.63 119.054V124.262C160.63 128.159 163.789 131.319 167.687 131.319H180.997C184.894 131.319 188.053 128.159 188.053 124.262V119.054C188.053 115.157 184.894 111.998 180.997 111.998Z" fill="#263238"/>
<path d="M127.316 90.6435L124.659 83.6401C124.659 83.6401 125.801 82.5849 125.017 81.5153C124.233 80.4457 119.335 77.44 118.444 77.9676C117.554 78.4951 115.565 80.4892 116.639 81.5976C117.714 82.7059 122.447 84.55 122.447 84.55L124.799 93.746L127.316 90.6435Z" fill="#E4897B"/>
<path d="M145.868 103.958C145.868 103.958 133.768 101.475 132.476 100.88C131.183 100.285 126.324 86.0407 126.324 86.0407L122.592 87.7831C122.592 87.7831 125.593 102.08 128.662 105.478C131.73 108.876 144.827 111.77 144.827 111.77L145.868 103.958Z" fill="#FF6700"/>
<path opacity="0.2" d="M144.798 111.756L144.576 111.702C143.918 111.552 141.851 111.068 139.397 110.347C135.414 109.19 130.39 107.443 128.638 105.483C125.574 102.095 122.568 87.7831 122.568 87.7831L126.295 86.0407C126.295 86.0407 131.159 100.29 132.476 100.88C133.792 101.471 145.868 103.958 145.868 103.958L144.798 111.756Z" fill="black"/>
<path d="M126.358 85.76L127.128 87.2459L122.336 88.8963L122.52 87.0813L126.358 85.76Z" fill="#FF6700"/>
<path opacity="0.2" d="M144.89 111.557C144.222 111.46 142.127 111.136 139.62 110.589C141.047 108.121 145.229 106.853 145.229 106.853L144.89 111.557Z" fill="black"/>
<path d="M162.904 94.0944C162.904 94.0944 163.616 100.788 161.138 102.434C158.66 104.079 146.458 102.153 145.074 99.4572C143.69 96.7613 148.898 89.4529 148.898 89.4529L162.904 94.0944Z" fill="#263238"/>
<path d="M113.542 182.173L116.726 182.942L118.338 178.548L119.8 174.55L116.174 173.006L114.781 177.855L113.542 182.173Z" fill="#E4897B"/>
<path opacity="0.2" d="M114.78 177.855L118.338 178.548L119.799 174.55L116.174 173.006L114.78 177.855Z" fill="black"/>
<path d="M115.1 175.537L119.514 177.178C119.514 177.178 131.289 147.736 133.709 147.654C136.129 147.572 160.77 158.878 166.946 152.596C173.122 146.313 164.192 131.164 164.192 131.164C164.192 131.164 149.338 129.044 148.22 132.398C147.945 133.387 147.734 134.393 147.591 135.409C147.421 136.435 147.305 137.296 147.305 137.296C146.845 137.18 131.933 133.332 126.057 137.296C120.08 141.328 115.1 175.537 115.1 175.537Z" fill="#FF6700"/>
<path opacity="0.6" d="M115.1 175.537L119.514 177.178C119.514 177.178 131.289 147.736 133.709 147.654C136.129 147.572 160.77 158.878 166.946 152.596C173.122 146.313 164.192 131.164 164.192 131.164C164.192 131.164 149.338 129.044 148.22 132.398C147.945 133.387 147.734 134.393 147.591 135.409C147.421 136.435 147.305 137.296 147.305 137.296C146.845 137.18 131.933 133.332 126.057 137.296C120.08 141.328 115.1 175.537 115.1 175.537Z" fill="white"/>
<path d="M140.49 194.733L143.66 193.924L143.051 189.37L142.484 185.198L138.564 185.551L139.58 190.415L140.49 194.733Z" fill="#E4897B"/>
<path opacity="0.2" d="M139.605 190.512L143.071 189.457L142.495 185.241L138.569 185.575L139.605 190.512Z" fill="black"/>
<path d="M121.339 175.542L114.906 173.359L114.63 175.992L119.509 177.715L121.339 175.542Z" fill="#FF6700"/>
<path d="M156.279 154.086C156.279 154.086 155.272 154.11 139.692 153.384C139.692 153.384 142.02 172.861 143.293 187.444L138.632 188.237C138.632 188.237 127.5 157.014 127.621 152.053C127.742 147.092 133.429 145.64 133.429 145.64C133.429 145.64 144.527 152.053 156.279 154.086Z" fill="#FF6700"/>
<path opacity="0.6" d="M156.279 154.086C156.279 154.086 155.272 154.11 139.692 153.384C139.692 153.384 142.02 172.861 143.293 187.444L138.632 188.237C138.632 188.237 127.5 157.014 127.621 152.053C127.742 147.092 133.429 145.64 133.429 145.64C133.429 145.64 144.527 152.053 156.279 154.086Z" fill="white"/>
<path opacity="0.1" d="M156.279 154.086C156.279 154.086 155.272 154.11 139.692 153.384C139.692 153.384 142.02 172.861 143.293 187.444L138.632 188.237C138.632 188.237 127.5 157.014 127.621 152.053C127.742 147.092 133.429 145.64 133.429 145.64C133.429 145.64 144.527 152.053 156.279 154.086Z" fill="black"/>
<path d="M143.971 186.03L137.567 186.761L138.806 189.268L143.99 188.605L143.971 186.03Z" fill="#FF6700"/>
<path opacity="0.1" d="M147.305 137.296L155.993 139.106C155.993 139.106 151.192 136.454 147.591 135.409C147.421 136.435 147.305 137.296 147.305 137.296Z" fill="black"/>
<path d="M163.834 128.855L164.192 131.164L148.22 132.398L147.799 129.664L163.834 128.855Z" fill="#263238"/>
<path opacity="0.2" d="M163.834 128.855L164.192 131.164L148.22 132.398L147.799 129.664L163.834 128.855Z" fill="black"/>
<path d="M158.796 132.723L159.586 132.642L159.173 128.622L158.383 128.703L158.796 132.723Z" fill="#FF6700"/>
<path d="M151.701 132.322L155.198 132.097L155.027 129.445L151.53 129.67L151.701 132.322Z" fill="white"/>
<path d="M148.997 133.146L149.786 133.065L149.373 129.044L148.583 129.126L148.997 133.146Z" fill="#FF6700"/>
<path opacity="0.6" d="M158.796 132.723L159.586 132.642L159.173 128.622L158.383 128.703L158.796 132.723Z" fill="white"/>
<path opacity="0.6" d="M148.997 133.146L149.786 133.065L149.373 129.044L148.583 129.126L148.997 133.146Z" fill="white"/>
<path d="M145.577 103.741C148.569 104.567 151.674 104.909 154.773 104.752C159.904 104.491 166.012 106.964 166.012 106.964L163.815 128.841L147.775 129.649C147.775 129.649 142.407 111.397 145.577 103.741Z" fill="#FF6700"/>
<path d="M148.157 91.3841C148.157 91.3841 149.057 80.7651 157.934 84.6081C169.066 89.4481 160.218 102.39 154.774 99.7379C149.329 97.0856 148.157 91.3841 148.157 91.3841Z" fill="#263238"/>
<path opacity="0.2" d="M150.645 105.347L150.902 111.349L152.891 108.527C152.891 108.527 152.179 115.163 152.596 118.778C152.596 118.778 152.978 112.298 153.878 108.527L155.993 111.349L159.028 105.386C159.028 105.386 154.115 103.62 150.645 105.347Z" fill="black"/>
<path d="M153.394 106.48L157.987 105.183C155.156 103.247 156.583 98.8909 156.583 98.8909L152.034 100.488C152.243 101.121 152.405 101.768 152.518 102.424C153.002 105.26 151.714 105.488 151.714 105.488L153.394 106.48Z" fill="#E4897B"/>
<path opacity="0.2" d="M152.034 100.464C152.243 101.096 152.405 101.743 152.518 102.4C154.696 101.524 156.578 98.857 156.578 98.857L152.034 100.464Z" fill="black"/>
<path d="M155.006 86.8539C150.974 85.9633 149.198 87.8219 147.988 91.9165C146.473 97.0227 146.807 100.962 152.087 100.972C159.26 100.982 161.694 88.3349 155.006 86.8539Z" fill="#E4897B"/>
<path d="M150.64 92.2698C150.186 92.8001 149.669 93.2731 149.101 93.6782C149.182 93.872 149.315 94.0394 149.486 94.1617C149.657 94.2839 149.859 94.3561 150.069 94.3703L150.64 92.2698Z" fill="#DE5753"/>
<path d="M153.181 92.4827C153.099 92.8118 153.21 93.1264 153.433 93.1797C153.655 93.2329 153.892 93.0103 153.975 92.6957C154.057 92.3811 153.946 92.0568 153.723 91.9987C153.5 91.9407 153.263 92.1536 153.181 92.4827Z" fill="#263238"/>
<path d="M153.81 92.023L153.167 91.568C153.167 91.568 153.375 92.2601 153.81 92.023Z" fill="#263238"/>
<path d="M149.106 91.4083C149.023 91.7374 149.135 92.052 149.357 92.1052C149.58 92.1585 149.841 91.9358 149.899 91.6212C149.958 91.3066 149.87 90.9823 149.648 90.9243C149.425 90.8662 149.188 91.0791 149.106 91.4083Z" fill="#263238"/>
<path d="M149.735 90.9485L149.072 90.5081C149.072 90.5081 149.299 91.1808 149.735 90.9485Z" fill="#263238"/>
<path d="M155.451 90.8807C155.419 90.8813 155.387 90.873 155.358 90.8568C155.33 90.8406 155.307 90.8171 155.291 90.7887C155.132 90.5398 154.919 90.3297 154.667 90.1739C154.416 90.0181 154.133 89.9206 153.839 89.8885C153.793 89.8824 153.751 89.8591 153.721 89.8232C153.692 89.7872 153.677 89.7414 153.68 89.6949C153.684 89.6482 153.707 89.6053 153.744 89.5754C153.78 89.5456 153.826 89.5311 153.873 89.5352C154.23 89.5697 154.574 89.6864 154.878 89.8762C155.182 90.066 155.438 90.3237 155.625 90.629C155.636 90.6496 155.643 90.6721 155.644 90.6953C155.646 90.7185 155.644 90.7418 155.636 90.7639C155.629 90.786 155.618 90.8064 155.602 90.824C155.587 90.8416 155.569 90.8559 155.548 90.8662C155.517 90.8783 155.484 90.8832 155.451 90.8807Z" fill="#263238"/>
<path d="M150.945 89.056C150.912 89.0555 150.88 89.0454 150.853 89.027C150.615 88.9128 150.354 88.8535 150.091 88.8535C149.827 88.8535 149.566 88.9128 149.328 89.027C149.307 89.0356 149.285 89.0399 149.262 89.0396C149.24 89.0394 149.217 89.0346 149.196 89.0256C149.176 89.0166 149.157 89.0035 149.141 88.9871C149.126 88.9707 149.114 88.9514 149.106 88.9302C149.097 88.9089 149.093 88.8861 149.093 88.8632C149.093 88.8402 149.098 88.8175 149.107 88.7963C149.116 88.7752 149.129 88.756 149.145 88.74C149.162 88.7239 149.181 88.7112 149.202 88.7027C149.492 88.5682 149.808 88.5017 150.127 88.5084C150.445 88.5151 150.758 88.5948 151.042 88.7414C151.061 88.7537 151.078 88.7698 151.091 88.7887C151.104 88.8075 151.114 88.8288 151.119 88.8513C151.124 88.8738 151.124 88.8971 151.12 88.9198C151.116 88.9425 151.107 88.9641 151.095 88.9834C151.078 89.0068 151.055 89.0256 151.029 89.0383C151.003 89.0509 150.974 89.057 150.945 89.056V89.056Z" fill="#263238"/>
<path d="M157.905 94.6172C157.905 94.6172 156.753 90.8904 157.605 88.3978C157.605 88.3978 150.345 83.369 148.157 91.3841C148.157 91.3841 148.966 84.0176 155.93 85.3921C162.895 86.7667 160.615 96.8871 156.371 99.1135C156.371 99.1135 158.612 96.9452 157.905 94.6172Z" fill="#263238"/>
<path d="M157.058 95.348C157.199 94.8901 157.517 94.507 157.941 94.2829C158.364 94.0588 158.86 94.0119 159.318 94.1525C160.538 94.5639 160.562 97.2598 157.324 97.1872C156.855 97.1533 156.7 96.6645 157.058 95.348Z" fill="#E4897B"/>
<path d="M149.338 95.8998C149.446 96.394 149.517 96.8955 149.551 97.4002H149.812C151.017 97.5018 151.608 97.1485 151.898 96.7323C152.037 96.5254 152.123 96.2879 152.15 96.0402C152.17 95.9005 152.17 95.7587 152.15 95.6191C151.373 95.8867 150.548 95.984 149.73 95.9046C149.498 95.9192 149.338 95.8998 149.338 95.8998Z" fill="#263238"/>
<path d="M149.75 95.9288L149.822 96.3693C150.955 96.4612 151.758 96.3693 152.15 96.0643C152.171 95.9247 152.171 95.7829 152.15 95.6432C151.379 95.9081 150.561 96.0054 149.75 95.9288V95.9288Z" fill="white"/>
<path d="M149.812 97.4244C151.018 97.526 151.608 97.1727 151.899 96.7565C151.442 96.7266 150.983 96.7774 150.543 96.9065C150.251 96.9978 149.995 97.179 149.812 97.4244Z" fill="#DE5753"/>
<path d="M155.02 87.1781C155.02 87.1781 155.175 94.1623 159.376 95.0044C163.577 95.8466 158.989 86.0214 158.989 86.0214C158.989 86.0214 152.745 81.9461 148.583 84.8211C144.421 87.696 148.167 91.3841 148.167 91.3841C148.167 91.3841 149.033 86.1956 155.02 87.1781Z" fill="#263238"/>
<path d="M156.622 93.5717C156.594 93.5715 156.566 93.5612 156.545 93.5427C153.563 91.2001 155.035 86.7183 155.049 86.6747C155.06 86.6445 155.082 86.6195 155.111 86.6051C155.14 86.5907 155.173 86.5879 155.204 86.5973C155.234 86.6082 155.259 86.6307 155.272 86.6597C155.286 86.6888 155.287 86.722 155.277 86.7522C155.277 86.7957 153.849 91.1082 156.695 93.3539C156.706 93.3648 156.715 93.3779 156.722 93.3925C156.728 93.4071 156.731 93.4228 156.731 93.4386C156.731 93.4545 156.728 93.4702 156.722 93.4848C156.715 93.4994 156.706 93.5125 156.695 93.5233C156.687 93.5361 156.676 93.547 156.664 93.5553C156.651 93.5637 156.637 93.5693 156.622 93.5717Z" fill="#263238"/>
<path d="M160.591 96.437C160.059 97.86 158.689 98.6586 157.532 98.2278C156.376 97.797 155.872 96.2918 156.405 94.8688C156.937 93.4459 158.307 92.6473 159.464 93.0829C160.62 93.5185 161.124 95.0189 160.591 96.437Z" fill="#FF6700"/>
<path opacity="0.4" d="M160.591 96.437C160.059 97.86 158.689 98.6586 157.532 98.2278C156.376 97.797 155.872 96.2918 156.405 94.8688C156.937 93.4459 158.307 92.6473 159.464 93.0829C160.62 93.5185 161.124 95.0189 160.591 96.437Z" fill="black"/>
<path d="M159.236 94.109C159.236 94.109 160.973 86.3311 157.077 84.2935C157.521 84.3515 157.961 84.4372 158.394 84.55C158.878 84.6952 162.009 87.8509 160.436 94.8398L159.236 94.109Z" fill="#FF6700"/>
<path opacity="0.2" d="M159.236 94.109C159.236 94.109 160.973 86.3311 157.077 84.2935C157.521 84.3515 157.961 84.4372 158.394 84.55C158.878 84.6952 162.009 87.8509 160.436 94.8398L159.236 94.109Z" fill="black"/>
<path d="M151.976 98.5618L151.686 98.5183L151.763 98.0343C153.901 98.363 156.085 97.9 157.905 96.7323L158.19 97.1195C156.36 98.3325 154.154 98.8446 151.976 98.5618V98.5618Z" fill="#FF6700"/>
<g opacity="0.2">
<path opacity="0.2" d="M151.976 98.5618L151.686 98.5183L151.763 98.0343C153.901 98.363 156.085 97.9 157.905 96.7323L158.19 97.1195C156.36 98.3325 154.154 98.8446 151.976 98.5618V98.5618Z" fill="black"/>
</g>
<path d="M160.426 96.2434C160.078 97.1824 159.168 97.6954 158.408 97.4244C157.648 97.1533 157.309 96.1466 157.663 95.2077C158.016 94.2687 158.921 93.7557 159.681 94.0267C160.441 94.2977 160.78 95.3045 160.426 96.2434Z" fill="#FF6700"/>
<path d="M151.521 98.736L151.129 98.6828C151.061 98.6739 150.994 98.6515 150.935 98.6169C150.875 98.5823 150.823 98.5363 150.781 98.4814C150.739 98.4265 150.708 98.3638 150.691 98.2971C150.673 98.2303 150.669 98.1607 150.679 98.0923C150.687 98.0234 150.709 97.9569 150.743 97.8966C150.778 97.8363 150.824 97.7834 150.879 97.7411C150.934 97.6988 150.997 97.6678 151.064 97.65C151.131 97.6321 151.201 97.6279 151.269 97.6374L151.657 97.6906C151.795 97.7099 151.92 97.7825 152.005 97.8929C152.09 98.0033 152.128 98.1427 152.111 98.2811V98.2811C152.092 98.4191 152.02 98.5441 151.909 98.6291C151.799 98.7142 151.659 98.7526 151.521 98.736V98.736Z" fill="#FF6700"/>
<path opacity="0.4" d="M151.521 98.736L151.129 98.6828C151.061 98.6739 150.994 98.6515 150.935 98.6169C150.875 98.5823 150.823 98.5363 150.781 98.4814C150.739 98.4265 150.708 98.3638 150.691 98.2971C150.673 98.2303 150.669 98.1607 150.679 98.0923C150.687 98.0234 150.709 97.9569 150.743 97.8966C150.778 97.8363 150.824 97.7834 150.879 97.7411C150.934 97.6988 150.997 97.6678 151.064 97.65C151.131 97.6321 151.201 97.6279 151.269 97.6374L151.657 97.6906C151.795 97.7099 151.92 97.7825 152.005 97.8929C152.09 98.0033 152.128 98.1427 152.111 98.2811V98.2811C152.092 98.4191 152.02 98.5441 151.909 98.6291C151.799 98.7142 151.659 98.7526 151.521 98.736V98.736Z" fill="black"/>
<path d="M156.753 103.503L153.878 106.325L155.03 109.791L159.028 105.386L156.753 103.503Z" fill="#FF6700"/>
<path d="M152.596 104.094L153.06 106.267L151.574 109.34L150.645 105.347L152.596 104.094Z" fill="#FF6700"/>
<path d="M156.138 105.952L157.808 99.8396C157.808 99.8396 157 98.3198 157.174 98.0004C157.348 97.6809 158.219 93.5766 158.839 93.1313C159.458 92.686 162.009 93.4459 162.266 93.8622C162.522 94.2784 159.821 99.8396 159.821 99.8396L158.853 106.466L156.138 105.952Z" fill="#E4897B"/>
<path d="M166.012 106.964C170.61 111.668 161.399 122.326 156.119 121.871C150.838 121.416 156.254 102.095 156.254 102.095L159.642 102.652C159.642 102.652 158.457 111.015 158.829 111.668C159.202 112.322 164.487 105.401 166.012 106.964Z" fill="#FF6700"/>
<path opacity="0.2" d="M166.012 106.964C170.61 111.668 161.399 122.326 156.119 121.871C150.838 121.416 156.254 102.095 156.254 102.095L159.642 102.652C159.642 102.652 158.457 111.015 158.829 111.668C159.202 112.322 164.487 105.401 166.012 106.964Z" fill="black"/>
<path d="M155.993 101.49L155.495 103.087L160.204 103.503V102.11L155.993 101.49Z" fill="#FF6700"/>
<path opacity="0.6" d="M148.854 114.127H146.947C146.736 114.127 146.565 114.298 146.565 114.51V118.111C146.565 118.322 146.736 118.493 146.947 118.493H148.854C149.065 118.493 149.237 118.322 149.237 118.111V114.51C149.237 114.298 149.065 114.127 148.854 114.127Z" fill="white"/>
<path opacity="0.2" d="M148.893 114.418H146.725V117.385H148.893V114.418Z" fill="black"/>
<path d="M148.099 113.077H147.62V114.824H148.099V113.077Z" fill="#263238"/>
<path d="M108.276 188.358C108.758 188.134 109.279 188.001 109.81 187.966V187.966C109.81 187.966 111.649 186.887 113.469 182.681H115.516C115.863 182.683 116.201 182.793 116.484 182.995C116.766 183.197 116.979 183.481 117.094 183.809C117.128 183.899 117.148 183.993 117.152 184.089C117.128 184.584 117.075 185.077 116.992 185.566C116.693 187.202 116.294 188.818 115.797 190.406L115.448 190.318L116.078 187.26C116.291 186.224 115.197 187.226 114.693 188.271C114.19 189.317 113.411 190.377 111.146 189.859C108.508 189.21 107.448 188.833 108.276 188.358Z" fill="#FF6700"/>
<path d="M113.841 181.582C113.841 181.582 111.281 186.935 109.81 187.966C109.81 187.966 111.784 189.142 113.841 186.514C116.498 183.126 117.152 184.07 117.152 184.07C117.096 183.485 116.988 182.907 116.828 182.342C116.431 181.258 113.841 181.582 113.841 181.582Z" fill="#E4897B"/>
<path d="M136.454 201.112C136.872 200.782 137.346 200.53 137.853 200.366V200.366C137.853 200.366 139.382 198.881 140.152 194.365L142.141 193.881C142.479 193.803 142.832 193.831 143.153 193.961C143.474 194.091 143.748 194.316 143.937 194.607C143.991 194.687 144.033 194.775 144.062 194.868C144.159 195.347 144.226 195.832 144.261 196.32C144.354 197.974 144.346 199.633 144.237 201.286H143.879L143.767 198.169C143.724 197.109 142.906 198.343 142.659 199.481C142.412 200.618 141.914 201.823 139.59 201.857C136.885 201.886 135.762 201.77 136.454 201.112Z" fill="#FF6700"/>
<path d="M140.253 193.208C140.253 193.208 139.039 199.016 137.833 200.366C137.833 200.366 140.031 201.044 141.405 198.009C143.187 194.089 144.043 194.854 144.043 194.854C143.852 194.299 143.611 193.763 143.322 193.252C142.693 192.284 140.253 193.208 140.253 193.208Z" fill="#E4897B"/>
<path d="M185.256 76.0606H168.36C167.004 76.0606 165.906 77.1593 165.906 78.5145V85.7406C165.906 87.0958 167.004 88.1945 168.36 88.1945H185.256C186.611 88.1945 187.71 87.0958 187.71 85.7406V78.5145C187.71 77.1593 186.611 76.0606 185.256 76.0606Z" fill="#FF6700"/>
<path d="M171.748 86.8102L166.656 93.7314L174.87 87.2749L171.748 86.8102Z" fill="#FF6700"/>
<path d="M171.937 82.1251C171.937 82.2672 171.896 82.4064 171.818 82.5249C171.739 82.6434 171.628 82.736 171.497 82.7908C171.365 82.8456 171.221 82.8602 171.082 82.8327C170.942 82.8053 170.814 82.7369 170.714 82.6365C170.613 82.536 170.545 82.4079 170.517 82.2685C170.49 82.1291 170.505 81.9847 170.559 81.8536C170.614 81.7225 170.707 81.6107 170.825 81.5324C170.944 81.454 171.083 81.4127 171.225 81.4137C171.414 81.4137 171.595 81.4886 171.728 81.622C171.862 81.7555 171.937 81.9364 171.937 82.1251V82.1251Z" fill="white"/>
<path d="M175.658 82.1251C175.659 82.2672 175.618 82.4064 175.54 82.5249C175.461 82.6434 175.349 82.736 175.218 82.7908C175.087 82.8456 174.943 82.8602 174.803 82.8327C174.664 82.8053 174.536 82.7369 174.435 82.6365C174.335 82.536 174.267 82.4079 174.239 82.2685C174.212 82.1291 174.226 81.9847 174.281 81.8536C174.336 81.7225 174.428 81.6107 174.547 81.5324C174.665 81.454 174.805 81.4127 174.947 81.4137C175.135 81.4137 175.316 81.4886 175.45 81.622C175.583 81.7555 175.658 81.9364 175.658 82.1251V82.1251Z" fill="white"/>
<path d="M179.38 82.1251C179.381 82.2672 179.34 82.4064 179.262 82.5249C179.183 82.6434 179.072 82.736 178.94 82.7908C178.809 82.8456 178.665 82.8602 178.526 82.8327C178.386 82.8053 178.258 82.7369 178.158 82.6365C178.057 82.536 177.989 82.4079 177.961 82.2685C177.934 82.1291 177.948 81.9847 178.003 81.8536C178.058 81.7225 178.151 81.6107 178.269 81.5324C178.388 81.454 178.527 81.4127 178.669 81.4137C178.858 81.4137 179.039 81.4886 179.172 81.622C179.305 81.7555 179.38 81.9364 179.38 82.1251V82.1251Z" fill="white"/>
<path d="M183.103 82.1251C183.104 82.2672 183.062 82.4064 182.984 82.5249C182.906 82.6434 182.794 82.736 182.663 82.7908C182.532 82.8456 182.387 82.8602 182.248 82.8327C182.108 82.8053 181.98 82.7369 181.88 82.6365C181.779 82.536 181.711 82.4079 181.683 82.2685C181.656 82.1291 181.671 81.9847 181.725 81.8536C181.78 81.7225 181.873 81.6107 181.991 81.5324C182.11 81.454 182.249 81.4127 182.391 81.4137C182.58 81.4137 182.761 81.4886 182.894 81.622C183.028 81.7555 183.103 81.9364 183.103 82.1251V82.1251Z" fill="white"/>
<path d="M121.81 70.3387L109.756 63.8452C109.431 63.6703 109.026 63.7917 108.851 64.1165L105.004 71.2581C104.829 71.5829 104.95 71.988 105.275 72.1629L117.33 78.6564C117.654 78.8313 118.06 78.7099 118.234 78.3851L122.081 71.2435C122.256 70.9187 122.135 70.5136 121.81 70.3387Z" fill="#FF6700"/>
<path opacity="0.7" d="M121.81 70.3387L109.756 63.8452C109.431 63.6703 109.026 63.7917 108.851 64.1165L105.004 71.2581C104.829 71.5829 104.95 71.988 105.275 72.1629L117.33 78.6564C117.654 78.8313 118.06 78.7099 118.234 78.3851L122.081 71.2435C122.256 70.9187 122.135 70.5136 121.81 70.3387Z" fill="white"/>
<path opacity="0.2" d="M108.537 64.7059L112.288 71.7481C112.432 72.0164 112.652 72.2359 112.921 72.3789C113.19 72.522 113.495 72.582 113.798 72.5516L121.644 71.7772L113.658 72.9533C113.309 73.0049 112.952 72.9423 112.642 72.7748C112.331 72.6074 112.083 72.344 111.935 72.024L108.537 64.7059Z" fill="black"/>
<path d="M99.385 63.404C99.5157 60.7129 101.51 55.2873 103.935 53.6272C106.359 51.9671 104.762 54.2661 104.762 54.2661C104.762 54.2661 107.061 52.03 108.271 52.0977C109.481 52.1655 108.271 53.5497 108.271 53.5497C108.271 53.5497 110.764 52.0155 111.911 52.0977C113.058 52.18 111.911 53.5062 111.911 53.5062C111.911 53.5062 113.953 52.0542 114.781 52.7366C115.609 53.4191 104.186 60.9646 102.913 64.0332C101.64 67.1017 99.2544 66.1192 99.385 63.404Z" fill="#FF6700"/>
<path opacity="0.4" d="M99.385 63.404C99.5157 60.7129 101.51 55.2873 103.935 53.6272C106.359 51.9671 104.762 54.2661 104.762 54.2661C104.762 54.2661 107.061 52.03 108.271 52.0977C109.481 52.1655 108.271 53.5497 108.271 53.5497C108.271 53.5497 110.764 52.0155 111.911 52.0977C113.058 52.18 111.911 53.5062 111.911 53.5062C111.911 53.5062 113.953 52.0542 114.781 52.7366C115.609 53.4191 104.186 60.9646 102.913 64.0332C101.64 67.1017 99.2544 66.1192 99.385 63.404Z" fill="white"/>
<path d="M109.2 62.9974L110.725 63.9654C110.749 63.9804 110.767 64.003 110.777 64.0296C110.786 64.0562 110.787 64.0853 110.778 64.1122C110.769 64.1391 110.751 64.1621 110.727 64.1777C110.704 64.1932 110.675 64.2003 110.647 64.1978L109.045 64.0719L109.181 65.3013C109.185 65.3303 109.179 65.3597 109.165 65.3853C109.151 65.4109 109.129 65.4312 109.102 65.4432C109.075 65.4551 109.045 65.4582 109.017 65.4518C108.988 65.4454 108.963 65.43 108.943 65.4078L108.019 64.372L109.2 62.9974Z" fill="#FF6700"/>
<path opacity="0.3" d="M109.2 62.9974L110.725 63.9654C110.749 63.9804 110.767 64.003 110.777 64.0296C110.786 64.0562 110.787 64.0853 110.778 64.1122C110.769 64.1391 110.751 64.1621 110.727 64.1777C110.704 64.1932 110.675 64.2003 110.647 64.1978L109.045 64.0719L109.181 65.3013C109.185 65.3303 109.179 65.3597 109.165 65.3853C109.151 65.4109 109.129 65.4312 109.102 65.4432C109.075 65.4551 109.045 65.4582 109.017 65.4518C108.988 65.4454 108.963 65.43 108.943 65.4078L108.019 64.372L109.2 62.9974Z" fill="white"/>
<path d="M87.7832 56.9377C87.7832 56.9377 89.8934 55.4857 93.083 56.4247C93.083 56.4247 93.9978 60.6403 96.5097 62.0439C97.8891 62.8135 101.263 62.7457 103.934 61.8842C107.104 60.8581 108.653 60.8581 109.229 62.0439C109.805 63.2297 109.166 64.4639 106.741 65.0399C104.317 65.6158 102.385 69.8266 97.9956 69.8799C93.6057 69.9331 91.2728 65.5239 92.3812 61.6519C91.3318 59.6725 89.7358 58.0362 87.7832 56.9377Z" fill="#FF6700"/>
<path opacity="0.5" d="M87.7832 56.9377C87.7832 56.9377 89.8934 55.4857 93.083 56.4247C93.083 56.4247 93.9978 60.6403 96.5097 62.0439C97.8891 62.8135 101.263 62.7457 103.934 61.8842C107.104 60.8581 108.653 60.8581 109.229 62.0439C109.805 63.2297 109.166 64.4639 106.741 65.0399C104.317 65.6158 102.385 69.8266 97.9956 69.8799C93.6057 69.9331 91.2728 65.5239 92.3812 61.6519C91.3318 59.6725 89.7358 58.0362 87.7832 56.9377Z" fill="white"/>
<path d="M108.02 62.8426C108.02 62.8856 108.007 62.9277 107.983 62.9636C107.959 62.9994 107.925 63.0273 107.885 63.0438C107.845 63.0603 107.802 63.0646 107.759 63.0562C107.717 63.0478 107.678 63.027 107.648 62.9966C107.617 62.9661 107.597 62.9273 107.588 62.885C107.58 62.8428 107.584 62.799 107.601 62.7592C107.617 62.7194 107.645 62.6854 107.681 62.6615C107.717 62.6375 107.759 62.6248 107.802 62.6248C107.86 62.6248 107.915 62.6477 107.956 62.6885C107.997 62.7294 108.02 62.7848 108.02 62.8426V62.8426Z" fill="#263238"/>
<path d="M96.9745 66.3854C94.3755 67.0921 88.5965 66.8694 86.2733 65.0786C83.9501 63.2878 86.6218 64.1106 86.6218 64.1106C86.6218 64.1106 83.7904 62.6151 83.4758 61.4438C83.1612 60.2725 84.8697 60.9888 84.8697 60.9888C84.8697 60.9888 82.6433 59.0964 82.3529 57.9832C82.0625 56.87 83.6887 57.5476 83.6887 57.5476C83.6887 57.5476 81.6608 56.0569 82.0722 55.055C82.4836 54.0531 93.1751 62.5909 96.4808 62.8571C99.7866 63.1233 99.6075 65.6691 96.9745 66.3854Z" fill="#FF6700"/>
<path opacity="0.4" d="M96.9745 66.3854C94.3755 67.0921 88.5965 66.8694 86.2733 65.0786C83.9501 63.2878 86.6218 64.1106 86.6218 64.1106C86.6218 64.1106 83.7904 62.6151 83.4758 61.4438C83.1612 60.2725 84.8697 60.9888 84.8697 60.9888C84.8697 60.9888 82.6433 59.0964 82.3529 57.9832C82.0625 56.87 83.6887 57.5476 83.6887 57.5476C83.6887 57.5476 81.6608 56.0569 82.0722 55.055C82.4836 54.0531 93.1751 62.5909 96.4808 62.8571C99.7866 63.1233 99.6075 65.6691 96.9745 66.3854Z" fill="white"/>
<path d="M79.9376 54.6097C79.9186 54.6144 79.8986 54.6144 79.8796 54.6097C79.4294 54.45 78.9696 54.3 78.505 54.1596C78.4591 54.1451 78.4206 54.1131 78.398 54.0706C78.3754 54.0281 78.3703 53.9783 78.384 53.9321C78.3985 53.8862 78.4305 53.8478 78.473 53.8251C78.5156 53.8025 78.5653 53.7975 78.6115 53.8111C79.0955 53.9515 79.5456 54.1064 80.0006 54.2951C80.0411 54.309 80.0753 54.3369 80.0971 54.3738C80.1188 54.4108 80.1265 54.4542 80.1189 54.4964C80.1113 54.5386 80.0888 54.5766 80.0556 54.6036C80.0223 54.6306 79.9805 54.6448 79.9376 54.6436V54.6097Z" fill="#FF6700"/>
<path d="M50.6845 93.896C50.6366 93.896 50.5905 93.8773 50.5562 93.8438C50.5218 93.8104 50.5019 93.7648 50.5006 93.7169C50.5006 93.669 50.5193 93.6229 50.5527 93.5885C50.5862 93.5542 50.6317 93.5342 50.6797 93.533C51.6425 93.5193 52.6026 93.4254 53.5498 93.2523C53.5972 93.2437 53.6461 93.2542 53.686 93.2813C53.7258 93.3085 53.7534 93.3502 53.7628 93.3975C53.7677 93.421 53.7678 93.4453 53.7631 93.4689C53.7583 93.4925 53.7489 93.5149 53.7354 93.5348C53.7218 93.5547 53.7044 93.5716 53.6842 93.5846C53.6639 93.5976 53.6413 93.6064 53.6176 93.6104C52.6496 93.7876 51.6685 93.8831 50.6845 93.896V93.896ZM47.7805 93.7411C46.8039 93.6369 45.8342 93.4753 44.8765 93.2571C44.8291 93.2467 44.7878 93.2179 44.7615 93.1771C44.7352 93.1363 44.7261 93.0868 44.7362 93.0393C44.7477 92.9928 44.7769 92.9526 44.8175 92.9273C44.8582 92.902 44.9072 92.8936 44.954 92.9038C45.8965 93.1161 46.8497 93.2777 47.8096 93.3878C47.8526 93.3948 47.8918 93.417 47.92 93.4502C47.9482 93.4835 47.9637 93.5257 47.9637 93.5693C47.9637 93.6129 47.9482 93.6551 47.92 93.6884C47.8918 93.7216 47.8526 93.7437 47.8096 93.7508L47.7805 93.7411ZM56.3812 92.7731C56.3464 92.7733 56.3123 92.7633 56.2831 92.7444C56.2538 92.7255 56.2308 92.6984 56.2166 92.6666C56.2062 92.6448 56.2004 92.6211 56.1994 92.5969C56.1984 92.5727 56.2023 92.5486 56.2109 92.526C56.2195 92.5033 56.2326 92.4827 56.2494 92.4653C56.2662 92.4479 56.2863 92.434 56.3086 92.4246C57.1876 92.0457 58.0037 91.5348 58.7286 90.9097C58.7657 90.8814 58.8121 90.8683 58.8584 90.8729C58.9048 90.8776 58.9477 90.8996 58.9784 90.9346C59.0091 90.9697 59.0254 91.0151 59.024 91.0617C59.0225 91.1082 59.0035 91.1525 58.9706 91.1856C58.2166 91.8325 57.3699 92.3627 56.4586 92.7586C56.4319 92.7734 56.4021 92.7817 56.3715 92.7828L56.3812 92.7731ZM42.108 92.444C42.089 92.4487 42.069 92.4487 42.05 92.444C41.1304 92.1391 40.2059 91.7809 39.3105 91.3889C39.2708 91.3662 39.241 91.3296 39.2269 91.2861C39.2127 91.2426 39.2153 91.1955 39.234 91.1538C39.2527 91.1121 39.2863 91.0789 39.3282 91.0606C39.3701 91.0423 39.4173 91.0403 39.4606 91.0549C40.3414 91.4421 41.2514 91.7954 42.1661 92.1003C42.2114 92.1168 42.2484 92.1503 42.2692 92.1938C42.2901 92.2372 42.293 92.2871 42.2774 92.3327C42.2638 92.3662 42.2402 92.3947 42.21 92.4146C42.1798 92.4345 42.1442 92.4447 42.108 92.444V92.444ZM36.784 90.0917C36.7556 90.1004 36.7253 90.1004 36.6969 90.0917C35.8306 89.6077 34.9884 89.085 34.2043 88.5381C34.1849 88.5244 34.1684 88.5071 34.1557 88.487C34.1431 88.467 34.1345 88.4447 34.1304 88.4213C34.1264 88.3979 34.127 88.374 34.1322 88.3508C34.1374 88.3277 34.1471 88.3058 34.1608 88.2864C34.1744 88.267 34.1918 88.2505 34.2118 88.2378C34.2319 88.2252 34.2542 88.2166 34.2776 88.2125C34.3009 88.2085 34.3249 88.2091 34.348 88.2143C34.3712 88.2195 34.3931 88.2292 34.4124 88.2429C35.1868 88.7801 36.0145 89.298 36.876 89.7771C36.8968 89.7887 36.9152 89.8043 36.9299 89.8231C36.9446 89.8418 36.9555 89.8633 36.9618 89.8863C36.9681 89.9093 36.9697 89.9333 36.9667 89.957C36.9636 89.9806 36.9558 90.0034 36.9438 90.024C36.9233 90.0554 36.894 90.0799 36.8595 90.0946C36.825 90.1092 36.787 90.1133 36.7502 90.1063L36.784 90.0917ZM60.713 88.9834C60.6846 88.992 60.6543 88.992 60.6259 88.9834C60.605 88.9718 60.5867 88.9562 60.572 88.9374C60.5572 88.9187 60.5464 88.8972 60.5401 88.8742C60.5338 88.8512 60.5321 88.8272 60.5352 88.8036C60.5383 88.7799 60.5461 88.7571 60.5581 88.7365C60.7082 88.4752 60.8485 88.2041 60.9744 87.9234C61.2437 87.3307 61.4545 86.7131 61.6036 86.0794C61.6161 86.0325 61.6463 85.9923 61.6877 85.967C61.7292 85.9418 61.7788 85.9335 61.8262 85.9439C61.8729 85.9564 61.9127 85.9867 61.9372 86.0284C61.9616 86.0701 61.9687 86.1197 61.9569 86.1665C61.799 86.8211 61.5802 87.4596 61.3035 88.0735C61.1728 88.3639 61.0276 88.6494 60.8727 88.9205C60.8521 88.9514 60.8225 88.9754 60.788 88.9893C60.7534 89.0031 60.7154 89.0061 60.6791 88.9979L60.713 88.9834ZM32.0118 86.7473C31.9692 86.7467 31.9281 86.7313 31.8956 86.7037C31.1585 86.0527 30.468 85.3508 29.829 84.6032C29.7955 84.5688 29.7769 84.5228 29.7769 84.4749C29.7769 84.427 29.7955 84.381 29.829 84.3467C29.8625 84.3136 29.9077 84.295 29.9548 84.295C30.0019 84.295 30.0471 84.3136 30.0806 84.3467C30.7081 85.0785 31.3857 85.7659 32.1086 86.4037C32.142 86.438 32.1607 86.484 32.1607 86.5319C32.1607 86.5798 32.142 86.6258 32.1086 86.6602C32.0966 86.6864 32.0785 86.7093 32.0557 86.727C32.033 86.7447 32.0063 86.7566 31.9779 86.7618L32.0118 86.7473ZM62.1069 83.3883C62.083 83.3883 62.0593 83.3836 62.0373 83.3743C62.0152 83.365 61.9952 83.3513 61.9785 83.3342C61.9619 83.317 61.9488 83.2967 61.9401 83.2744C61.9314 83.2522 61.9272 83.2283 61.9278 83.2044C61.9208 82.2419 61.8318 81.2817 61.6616 80.3343C61.6531 80.2869 61.6635 80.238 61.6907 80.1981C61.7179 80.1583 61.7596 80.1307 61.8068 80.1213C61.8548 80.1142 61.9037 80.1258 61.9434 80.1537C61.983 80.1817 62.0104 80.2238 62.0198 80.2714C62.194 81.2395 62.2846 82.2208 62.2908 83.2044C62.2908 83.2532 62.2715 83.3 62.237 83.3345C62.2025 83.369 62.1557 83.3883 62.1069 83.3883V83.3883ZM61.1389 77.6481C61.0998 77.6477 61.0617 77.6348 61.0304 77.6113C60.999 77.5878 60.976 77.5549 60.9647 77.5174C60.7178 76.6704 60.4129 75.7702 60.0402 74.7635C60.031 74.741 60.0264 74.7168 60.0268 74.6925C60.0272 74.6682 60.0325 74.6442 60.0425 74.622C60.0525 74.5998 60.0668 74.5799 60.0848 74.5634C60.1027 74.547 60.1238 74.5343 60.1467 74.5263C60.1917 74.5105 60.2411 74.5127 60.2844 74.5326C60.3277 74.5525 60.3617 74.5884 60.379 74.6328C60.7566 75.6492 61.0615 76.5688 61.3132 77.4109C61.3268 77.4571 61.3218 77.5069 61.2992 77.5494C61.2765 77.5919 61.2381 77.6239 61.1922 77.6384L61.1389 77.6481ZM59.1352 72.1547C59.1016 72.155 59.0686 72.1455 59.0403 72.1275C59.012 72.1094 58.9894 72.0836 58.9754 72.0531C58.6657 71.2787 58.2446 70.3881 57.8042 69.4443V69.3959C57.7916 69.3537 57.7945 69.3084 57.8125 69.2682C57.8304 69.228 57.8622 69.1956 57.9021 69.1768C57.9419 69.1581 57.9872 69.1542 58.0296 69.166C58.072 69.1778 58.1088 69.2044 58.1333 69.241V69.2894C58.5786 70.2574 58.9948 71.1335 59.3046 71.8933C59.3241 71.9389 59.3249 71.9904 59.3068 72.0366C59.2887 72.0828 59.2531 72.12 59.2078 72.1402L59.1352 72.1547ZM56.7152 66.8307C56.6795 66.8318 56.6444 66.8223 56.6142 66.8033C56.584 66.7843 56.5602 66.7568 56.5458 66.7242C56.1102 65.7127 55.7617 64.8173 55.4858 63.9896C55.4702 63.944 55.4732 63.8941 55.494 63.8507C55.5148 63.8073 55.5518 63.7737 55.5971 63.7573C55.6433 63.742 55.6937 63.7456 55.7373 63.7674C55.7808 63.7891 55.814 63.8273 55.8294 63.8735C56.1005 64.6914 56.4441 65.5771 56.8797 66.579C56.8892 66.6009 56.8942 66.6245 56.8945 66.6483C56.8948 66.6722 56.8903 66.6959 56.8812 66.718C56.8722 66.7401 56.8589 66.7601 56.842 66.777C56.8251 66.7939 56.805 66.8072 56.7829 66.8162C56.7668 66.8333 56.7469 66.8466 56.7248 66.8549L56.7152 66.8307ZM54.9437 61.2841C54.9004 61.2835 54.8587 61.2676 54.8259 61.2393C54.7932 61.2109 54.7715 61.1719 54.7646 61.1292C54.6816 60.6106 54.6395 60.0862 54.6388 59.561C54.6348 59.0918 54.6769 58.6233 54.7646 58.1623C54.7786 58.1193 54.8079 58.083 54.8468 58.0602C54.8858 58.0375 54.9318 58.0299 54.9761 58.0388C55.0203 58.0478 55.0598 58.0727 55.0868 58.1089C55.1139 58.145 55.1267 58.1899 55.1228 58.2349C55.039 58.6719 54.9985 59.1161 55.0018 59.561C55.0035 60.0683 55.0439 60.5748 55.1228 61.0759C55.1286 61.1231 55.1164 61.1708 55.0886 61.2094C55.0608 61.248 55.0194 61.2747 54.9728 61.2841H54.9437ZM56.207 55.7858C56.1649 55.787 56.1238 55.7732 56.0908 55.7471C56.0574 55.7128 56.0387 55.6667 56.0387 55.6188C56.0387 55.5709 56.0574 55.5249 56.0908 55.4906C56.7406 54.7315 57.5311 54.1053 58.4188 53.6465C58.4613 53.624 58.5109 53.6189 58.5571 53.6325C58.6032 53.6461 58.6422 53.6772 58.6657 53.7191C58.6866 53.7624 58.6903 53.812 58.6759 53.8579C58.6615 53.9038 58.6302 53.9424 58.5882 53.966C57.7429 54.4031 56.9902 54.9997 56.3715 55.7229C56.3555 55.7496 56.3328 55.7717 56.3057 55.787C56.2785 55.8023 56.2478 55.8102 56.2166 55.81L56.207 55.7858ZM75.7218 53.4142H75.6831C74.7538 53.2206 73.7907 53.0561 72.8178 52.9302C72.7942 52.9272 72.7715 52.9196 72.7508 52.9077C72.7302 52.8959 72.7122 52.88 72.6978 52.8611C72.6833 52.8421 72.6728 52.8205 72.6669 52.7975C72.6609 52.7745 72.6596 52.7505 72.663 52.7269C72.6659 52.7033 72.6736 52.6805 72.6855 52.6599C72.6973 52.6393 72.7132 52.6213 72.7321 52.6068C72.751 52.5924 72.7726 52.5819 72.7957 52.5759C72.8187 52.57 72.8427 52.5687 72.8662 52.5721C73.8342 52.6979 74.8022 52.8625 75.7702 53.0561C75.8137 53.066 75.852 53.0915 75.878 53.1276C75.9041 53.1637 75.9162 53.208 75.9121 53.2524C75.908 53.2967 75.8879 53.3381 75.8555 53.3687C75.8232 53.3994 75.7809 53.4173 75.7364 53.4191L75.7218 53.4142ZM61.2018 53.0028C61.1783 53.0054 61.1545 53.0032 61.1318 52.9966C61.1091 52.9899 61.088 52.9789 61.0695 52.9641C61.0511 52.9492 61.0358 52.9309 61.0244 52.9101C61.0131 52.8894 61.0059 52.8666 61.0034 52.8431C61.0009 52.8196 61.003 52.7958 61.0096 52.7731C61.0163 52.7504 61.0273 52.7292 61.0422 52.7108C61.057 52.6924 61.0753 52.677 61.0961 52.6657C61.1168 52.6543 61.1396 52.6472 61.1631 52.6446C62.1189 52.4302 63.0898 52.2894 64.0671 52.2236C64.1151 52.2209 64.1623 52.2371 64.1985 52.2688C64.2347 52.3005 64.257 52.345 64.2607 52.393C64.2627 52.4169 64.2598 52.441 64.2523 52.4637C64.2448 52.4865 64.2328 52.5076 64.217 52.5256C64.2012 52.5437 64.182 52.5584 64.1604 52.5689C64.1388 52.5793 64.1153 52.5854 64.0913 52.5866C63.1302 52.6487 62.1753 52.7863 61.2357 52.998L61.2018 53.0028ZM69.9138 52.664C69.0717 52.6059 68.0698 52.543 67.0098 52.5236C66.9619 52.5224 66.9164 52.5025 66.8829 52.4681C66.8495 52.4337 66.8307 52.3877 66.8308 52.3397C66.8308 52.3158 66.8355 52.2921 66.8448 52.2701C66.8541 52.248 66.8678 52.2281 66.8849 52.2114C66.9021 52.1947 66.9224 52.1816 66.9447 52.1729C66.967 52.1642 66.9908 52.16 67.0147 52.1606C68.0843 52.1848 69.0959 52.2429 69.9187 52.301C69.9427 52.3022 69.9661 52.3082 69.9877 52.3187C70.0093 52.3292 70.0286 52.3439 70.0444 52.3619C70.0602 52.38 70.0722 52.401 70.0797 52.4238C70.0872 52.4466 70.0901 52.4707 70.0881 52.4946C70.0916 52.5383 70.0794 52.5818 70.0537 52.6173C70.0279 52.6528 69.9904 52.678 69.9477 52.6882L69.9138 52.664Z" fill="#FF6700"/>
<path d="M28.2464 82.28C28.2139 82.2806 28.1819 82.2723 28.1538 82.2562C28.1256 82.24 28.1024 82.2164 28.0867 82.188C27.8419 81.7631 27.6237 81.3235 27.4333 80.8716C27.4238 80.8497 27.4187 80.8261 27.4185 80.8022C27.4182 80.7784 27.4227 80.7547 27.4317 80.7326C27.4408 80.7105 27.4541 80.6904 27.471 80.6736C27.4879 80.6567 27.508 80.6434 27.5301 80.6344C27.5744 80.6165 27.624 80.6167 27.6683 80.6347C27.7125 80.6528 27.748 80.6874 27.7672 80.7312C27.9541 81.1688 28.1658 81.5954 28.4013 82.009C28.4193 82.0359 28.4295 82.0674 28.4307 82.0998C28.4319 82.1322 28.424 82.1643 28.4079 82.1925C28.3918 82.2207 28.3681 82.2438 28.3396 82.2593C28.3111 82.2747 28.2788 82.2819 28.2464 82.28V82.28Z" fill="#FF6700"/>
<path d="M87.0284 120.535H68.6558V124.301H87.0284V120.535Z" fill="white"/>
<path opacity="0.1" d="M87.0284 120.535H68.6558V124.301H87.0284V120.535Z" fill="black"/>
<path opacity="0.1" d="M76.3949 120.535H68.6558V124.301H76.3949V120.535Z" fill="black"/>
<path opacity="0.1" d="M68.6558 121.077H85.0101L68.6558 121.542V121.077Z" fill="black"/>
<path opacity="0.1" d="M87.0284 121.731L72.8521 122.084H87.0284V121.731Z" fill="black"/>
<path opacity="0.1" d="M69.4058 122.786L76.3947 122.5L86.6701 122.786L76.3947 122.946L69.4058 122.786Z" fill="black"/>
<path opacity="0.1" d="M68.6558 123.585H80.7654L68.6558 123.87V123.585Z" fill="black"/>
<path opacity="0.1" d="M86.9993 123.87L78.9116 124.02H87.0283L86.9993 123.87Z" fill="black"/>
<path d="M84.4727 116.77H66.1001V120.535H84.4727V116.77Z" fill="white"/>
<path opacity="0.1" d="M84.4727 116.77H66.1001V120.535H84.4727V116.77Z" fill="black"/>
<path opacity="0.1" d="M73.8392 116.77H66.1001V120.535H73.8392V116.77Z" fill="black"/>
<path opacity="0.1" d="M66.1001 117.312H82.4545L66.1001 117.772V117.312Z" fill="black"/>
<path opacity="0.1" d="M84.4727 117.965L70.2964 118.319H84.4727V117.965Z" fill="black"/>
<path opacity="0.1" d="M66.8457 119.02L73.8347 118.73L84.11 119.02L73.8347 119.18L66.8457 119.02Z" fill="black"/>
<path opacity="0.1" d="M66.1001 119.814H78.2098L66.1001 120.105V119.814Z" fill="black"/>
<path opacity="0.1" d="M84.4436 120.105L76.356 120.255H84.4726L84.4436 120.105Z" fill="black"/>
<path d="M86.5684 113H68.1958V116.765H86.5684V113Z" fill="white"/>
<path opacity="0.1" d="M86.5684 113H68.1958V116.765H86.5684V113Z" fill="black"/>
<path opacity="0.1" d="M75.935 113H68.1958V116.765H75.935V113Z" fill="black"/>
<path opacity="0.1" d="M68.1958 113.542H84.5502L68.1958 114.006V113.542Z" fill="black"/>
<path opacity="0.1" d="M86.5685 114.195L72.3921 114.548H86.5685V114.195Z" fill="black"/>
<path opacity="0.1" d="M68.9463 115.25L75.9353 114.965L86.2106 115.25L75.9353 115.41L68.9463 115.25Z" fill="black"/>
<path opacity="0.1" d="M68.1958 116.049H80.3055L68.1958 116.334V116.049Z" fill="black"/>
<path opacity="0.1" d="M86.5442 116.334L78.4565 116.484H86.5684L86.5442 116.334Z" fill="black"/>
<path d="M98.8091 124.223L99.2834 122.418H118.914L127.951 123.323L128.294 124.223H98.8091Z" fill="#263238"/>
<path opacity="0.4" d="M118.914 122.418V124.223H98.8091L99.2834 122.418H118.914Z" fill="black"/>
<path d="M114.969 113.779C114.996 113.998 114.975 114.22 114.908 114.43C114.842 114.64 114.731 114.833 114.583 114.997C114.435 115.161 114.254 115.291 114.052 115.379C113.85 115.467 113.631 115.51 113.411 115.507H83.3449C82.8747 115.496 82.4244 115.315 82.0779 114.997C81.7314 114.679 81.5125 114.246 81.4621 113.779L79.6761 94.5301C79.6568 94.3421 79.6699 94.1522 79.7149 93.9686C79.7983 93.6306 79.9941 93.331 80.2703 93.119C80.5465 92.9071 80.8865 92.7953 81.2346 92.8022H111.32C111.79 92.8124 112.241 92.9934 112.587 93.3113C112.933 93.6293 113.152 94.0625 113.203 94.5301L114.969 113.779Z" fill="#263238"/>
<path opacity="0.4" d="M113.304 115.507H83.3449C82.8747 115.496 82.4244 115.315 82.0779 114.997C81.7314 114.679 81.5125 114.246 81.4621 113.779L79.6761 94.5301C79.6568 94.3421 79.6699 94.1522 79.7149 93.9686H109.674C110.145 93.9788 110.595 94.1598 110.941 94.4778C111.288 94.7958 111.507 95.229 111.557 95.6965L113.343 114.945C113.363 115.133 113.349 115.323 113.304 115.507V115.507Z" fill="black"/>
<path d="M92.6477 103.702H98.8671L97.2119 121.508L107.047 122.984V124.223H86.3315V122.984L90.5762 121.508L92.6477 103.702Z" fill="#263238"/>
<path opacity="0.1" d="M98.8671 103.702L94.2594 123.943L90.5762 123.831L92.6477 103.702H98.8671Z" fill="white"/>
<path d="M98.8378 201.862H95.8757L90.5469 127.689H94.4818L98.8378 201.862Z" fill="#263238"/>
<path opacity="0.4" d="M98.8426 201.862H95.8757L90.8082 131.377L90.5469 127.81H94.4818L94.6947 131.377L98.8426 201.862Z" fill="white"/>
<path opacity="0.2" d="M94.6947 131.198H90.8082L90.5469 127.81H94.4818L94.6947 131.198Z" fill="black"/>
<path d="M120.598 201.862H117.636L117.152 127.689H121.082L120.598 201.862Z" fill="#263238"/>
<path opacity="0.5" d="M121.087 127.81L121.01 139.779L120.603 201.862H117.636L117.23 139.779L117.152 127.81H121.087Z" fill="white"/>
<path opacity="0.2" d="M121.087 127.81L121.01 139.91H117.23L117.152 127.81H121.087Z" fill="black"/>
<path d="M152.078 201.862H149.116L143.787 127.689H147.722L152.078 201.862Z" fill="#263238"/>
<path opacity="0.5" d="M152.083 201.862H149.116L144.048 131.377L143.787 127.81H147.722L147.935 131.377L152.083 201.862Z" fill="white"/>
<path opacity="0.2" d="M147.935 131.198H144.048L143.787 127.81H147.722L147.935 131.198Z" fill="black"/>
<path d="M64.9191 201.862H61.957L66.313 127.689H70.248L64.9191 201.862Z" fill="#263238"/>
<path opacity="0.5" d="M70.248 127.81L69.9866 131.377L64.9191 201.862H61.957L66.1001 131.377L66.313 127.81H70.248Z" fill="white"/>
<path opacity="0.2" d="M66.3131 127.81H70.248L69.9866 131.198H66.1001L66.3131 127.81Z" fill="black"/>
<path d="M63.1963 125.84H150.839V128.507C150.839 128.644 150.812 128.78 150.759 128.907C150.707 129.034 150.63 129.149 150.533 129.246C150.436 129.343 150.32 129.42 150.194 129.473C150.067 129.525 149.931 129.552 149.794 129.552H64.2417C63.9645 129.552 63.6985 129.442 63.5025 129.246C63.3064 129.05 63.1963 128.784 63.1963 128.507V125.84Z" fill="#FF6700"/>
<path opacity="0.6" d="M63.1963 125.84H150.839V128.507C150.839 128.644 150.812 128.78 150.759 128.907C150.707 129.034 150.63 129.149 150.533 129.246C150.436 129.343 150.32 129.42 150.194 129.473C150.067 129.525 149.931 129.552 149.794 129.552H64.2417C63.9645 129.552 63.6985 129.442 63.5025 129.246C63.3064 129.05 63.1963 128.784 63.1963 128.507V125.84Z" fill="white"/>
<path opacity="0.2" d="M150.839 125.835H63.1963V127.694H150.839V125.835Z" fill="black"/>
<path d="M152.678 126.324H61.357C61.0797 126.324 60.8138 126.214 60.6177 126.018C60.4217 125.822 60.3115 125.556 60.3115 125.279C60.3115 125.001 60.4215 124.734 60.6174 124.538C60.8133 124.341 61.0792 124.23 61.357 124.228H152.678C152.956 124.23 153.222 124.341 153.418 124.538C153.614 124.734 153.724 125.001 153.724 125.279C153.724 125.556 153.613 125.822 153.417 126.018C153.221 126.214 152.955 126.324 152.678 126.324V126.324Z" fill="#FF6700"/>
<path opacity="0.6" d="M152.678 126.324H61.357C61.0797 126.324 60.8138 126.214 60.6177 126.018C60.4217 125.822 60.3115 125.556 60.3115 125.279C60.3115 125.001 60.4215 124.734 60.6174 124.538C60.8133 124.341 61.0792 124.23 61.357 124.228H152.678C152.956 124.23 153.222 124.341 153.418 124.538C153.614 124.734 153.724 125.001 153.724 125.279C153.724 125.556 153.613 125.822 153.417 126.018C153.221 126.214 152.955 126.324 152.678 126.324V126.324Z" fill="white"/>
<path d="M131.072 121L132.195 119.316C132.306 119.15 132.456 119.015 132.631 118.921C132.807 118.827 133.003 118.778 133.202 118.778H134.625C134.743 118.779 134.86 118.797 134.973 118.832L140.05 120.371C140.339 120.457 140.584 120.649 140.738 120.908L141.469 122.133L131.072 121Z" fill="#FF6700"/>
<path opacity="0.2" d="M141.468 122.133L134.068 121.329L131.062 121L132.185 119.316C132.296 119.15 132.446 119.015 132.621 118.921C132.797 118.827 132.993 118.778 133.192 118.778H134.615C134.735 118.779 134.854 118.797 134.968 118.832L135.08 118.866L140.041 120.371C140.331 120.456 140.578 120.648 140.733 120.908L141.468 122.133Z" fill="black"/>
<path opacity="0.2" d="M141.469 122.133L134.068 121.329L135.08 118.866L140.041 120.371C140.331 120.456 140.578 120.648 140.733 120.908L141.469 122.133Z" fill="black"/>
<path d="M144.982 124.064V124.223H129.291L129.872 121.953C129.979 121.537 130.223 121.167 130.564 120.904C130.905 120.641 131.324 120.5 131.755 120.501H138.715C138.946 120.5 139.175 120.541 139.392 120.622L140.263 120.947L143.719 122.234C144.092 122.372 144.413 122.622 144.639 122.95C144.866 123.277 144.985 123.666 144.982 124.064Z" fill="#FF6700"/>
<path opacity="0.2" d="M144.983 124.064V124.223H138.541L138.884 121.77C138.906 121.617 138.962 121.472 139.048 121.344C139.133 121.217 139.246 121.11 139.379 121.031C139.511 120.953 139.659 120.905 139.812 120.891C139.965 120.877 140.119 120.898 140.264 120.952L143.719 122.239C144.092 122.377 144.412 122.626 144.638 122.952C144.864 123.279 144.984 123.667 144.983 124.064Z" fill="black"/>
<path d="M139.542 122.559L141.594 116.407C141.614 116.344 141.648 116.287 141.692 116.238C141.737 116.19 141.792 116.152 141.853 116.127C141.913 116.102 141.979 116.091 142.045 116.094C142.111 116.097 142.175 116.115 142.233 116.146V116.146C142.322 116.197 142.393 116.275 142.435 116.369C142.476 116.463 142.487 116.568 142.465 116.668L140.737 123.231C140.737 123.231 139.59 123.696 139.542 122.559Z" fill="#263238"/>
<path opacity="0.2" d="M131.073 123.715H130.163L130.337 122.82H131.247L131.073 123.715Z" fill="black"/>
<path opacity="0.2" d="M132.427 123.681H131.518L131.692 122.786H132.602L132.427 123.681Z" fill="black"/>
</svg>
